<svg height="512" viewBox="0 0 128 128" width="512" xmlns="http://www.w3.org/2000/svg"><g id="Circle_Grid" data-name="Circle Grid"><circle cx="64" cy="64" fill="#2cbfae" r="64"/></g><g id="icon"><path d="m59.081 38.466h9.841v65.756h-9.841z" fill="#eeefee"/><path d="m78.763 104.22h-9.841v-36.914a14.778 14.778 0 0 1 14.762-14.762h6.561v9.841h-6.561a4.926 4.926 0 0 0 -4.921 4.921z" fill="#ef5261"/><path d="m104.7 58.1-13.939 11.3a.82.82 0 0 1 -1.336-.637v-22.6a.82.82 0 0 1 1.336-.637l13.939 11.304a.82.82 0 0 1 0 1.27z" fill="#ef5261"/><path d="m64.644 24.082 11.294 13.936a.82.82 0 0 1 -.637 1.336h-22.6a.819.819 0 0 1 -.637-1.336l11.3-13.936a.82.82 0 0 1 1.28 0z" fill="#eeefee"/><path d="m59.081 39.351h9.841v1.935h-9.841z" fill="#dbd8dd"/><path d="m87.489 52.543h1.935v9.841h-1.935z" fill="#da364c"/><path d="m49.24 104.22h9.841v-36.914a14.778 14.778 0 0 0 -14.762-14.762h-6.561v9.841h6.561a4.927 4.927 0 0 1 4.921 4.921z" fill="#f2c55a"/><path d="m23.3 58.1 13.939 11.3a.82.82 0 0 0 1.336-.637v-22.6a.82.82 0 0 0 -1.336-.637l-13.939 11.304a.82.82 0 0 0 0 1.27z" fill="#f2c55a"/><path d="m38.572 52.543h1.935v9.841h-1.935z" fill="#eab54e"/></g></svg>