<svg height="512pt" viewBox="0 0 512 512" width="512pt" xmlns="http://www.w3.org/2000/svg" xmlns:xlink="http://www.w3.org/1999/xlink"><linearGradient id="a" gradientUnits="userSpaceOnUse" x1="74.9807" x2="437.0193" y1="74.9807" y2="437.0193"><stop offset=".0053" stop-color="#575f64"/><stop offset="1" stop-color="#32393f"/></linearGradient><linearGradient id="b"><stop offset="0" stop-color="#f4d7af"/><stop offset="1" stop-color="#dabba6"/></linearGradient><linearGradient id="c" gradientUnits="userSpaceOnUse" x1="318.7076" x2="368.3482" xlink:href="#b" y1="264.3797" y2="314.0202"/><linearGradient id="d"><stop offset=".0053" stop-color="#9bfcff"/><stop offset="1" stop-color="#76e2f8"/></linearGradient><linearGradient id="e" gradientUnits="userSpaceOnUse" x1="313.8604" x2="391.8135" xlink:href="#d" y1="329.9955" y2="407.9485"/><linearGradient id="f"><stop offset="0" stop-color="#fdbf00"/><stop offset="1" stop-color="#ff9100"/></linearGradient><linearGradient id="g" gradientUnits="userSpaceOnUse" x1="119.8703" x2="181.7709" xlink:href="#f" y1="118.1385" y2="180.0392"/><linearGradient id="h" gradientUnits="userSpaceOnUse" x1="225.1903" x2="286.8097" xlink:href="#f" y1="118.4347" y2="180.0542"/><linearGradient id="i" gradientUnits="userSpaceOnUse" x1="330.3749" x2="391.9838" xlink:href="#f" y1="118.2844" y2="179.8933"/><linearGradient id="j" gradientUnits="userSpaceOnUse" x1="143.6518" x2="193.2924" xlink:href="#b" y1="264.3797" y2="314.0202"/><linearGradient id="k" gradientUnits="userSpaceOnUse" x1="128.6748" x2="189.6512" xlink:href="#d" y1="338.4838" y2="399.4602"/><linearGradient id="l" gradientUnits="userSpaceOnUse" x1="231.1997" x2="280.8004" y1="246.6054" y2="296.2061"><stop offset="0" stop-color="#faecd8"/><stop offset="1" stop-color="#f4d7af"/></linearGradient><linearGradient id="m" gradientUnits="userSpaceOnUse" x1="212.507" x2="299.493" y1="325.1714" y2="412.1575"><stop offset=".0053" stop-color="#ff637b"/><stop offset="1" stop-color="#e63950"/></linearGradient><path d="m512 256c0 141.386719-114.613281 256-256 256s-256-114.613281-256-256 114.613281-256 256-256 256 114.613281 256 256zm0 0" fill="url(#a)"/><path d="m343.527344 324.359375c-19.308594 0-35.011719-15.703125-35.011719-35.011719s15.703125-35.59375 35.011719-35.59375 35.011718 16.285156 35.011718 35.59375-15.703124 35.011719-35.011718 35.011719zm0 0" fill="url(#c)"/><path d="m343.527344 324.359375c-13.324219 0-25.566406 4.363281-35.621094 11.589844l-12.851562 29.03125 22.214843 29.402343h88.113281v-8.753906c0-33.839844-28.015624-61.269531-61.855468-61.269531zm0 0" fill="url(#e)"/><path d="m150.964844 169.558594-27.113282 14.171875 5.148438-31.082031-22.382812-21.257813 31.03125-4.378906 13.316406-31.394531 13.644531 31.394531 30.121094 4.378906-21.796875 21.257813 5.144531 31.082031zm0 0" fill="url(#g)"/><path d="m277.882812 152.570312 5.25 31.160157-27.132812-14.179688-27.132812 14.179688 5.25-31.160157-21.882813-21.179687 30.460937-4.378906 13.304688-31.394531 13.65625 31.394531 30.109375 4.378906zm0 0" fill="url(#h)"/><path d="m361.035156 169.558594-27.113281 14.171875 5.144531-31.082031-21.796875-21.257813 30.445313-4.378906 13.320312-31.394531 13.640625 31.394531 30.707031 4.378906-22.382812 21.257813 5.148438 31.082031zm0 0" fill="url(#i)"/><path d="m168.472656 324.359375c-19.308594 0-35.011718-15.703125-35.011718-35.011719s15.703124-35.59375 35.011718-35.59375 35.011719 16.285156 35.011719 35.59375-15.703125 35.011719-35.011719 35.011719zm0 0" fill="url(#j)"/><path d="m168.472656 324.359375c-33.839844 0-61.855468 27.429687-61.855468 61.269531v8.753906h88.113281l21.710937-26.261718-12.347656-32.171875c-10.054688-7.226563-22.296875-11.589844-35.621094-11.589844zm0 0" fill="url(#k)"/><path d="m256 236.246094c-19.257812 0-35.011719 15.753906-35.011719 35.011718 0 19.257813 15.753907 35.59375 35.011719 35.59375s35.011719-16.335937 35.011719-35.59375c0-19.253906-15.753907-35.011718-35.011719-35.011718zm0 0" fill="url(#l)"/><path d="m317.269531 368.121094v26.261718h-122.539062v-26.261718c0-11.902344 3.5-22.753906 9.277343-32.210938 10.851563-17.328125 30.109376-29.058594 51.992188-29.058594s41.136719 11.730469 51.988281 29.058594c5.78125 9.457032 9.28125 20.308594 9.28125 32.210938zm0 0" fill="url(#m)"/></svg>