<svg height="464pt" viewBox="0 0 464 464" width="464pt" xmlns="http://www.w3.org/2000/svg"><path d="m32 0h400c17.601562 0 32 14.398438 32 32v400c0 17.601562-14.398438 32-32 32h-400c-17.601562 0-32-14.398438-32-32v-400c0-17.601562 14.398438-32 32-32zm0 0" fill="#538457"/><path d="m104 72h256c17.601562 0 32 14.398438 32 32v256c0 17.601562-14.398438 32-32 32h-256c-17.601562 0-32-14.398438-32-32v-256c0-17.601562 14.398438-32 32-32zm0 0" fill="#5da364"/><path d="m224 392v-80c0-8.800781-7.199219-16-16-16h-25.601562c-8 0-15.199219-6.398438-16-14.398438l-6.398438-57.601562h-24l43.199219-87.199219c2.402343-5.601562 8-8.800781 14.402343-8.800781h110.398438c8.800781 0 16 7.199219 16 16v248" fill="#edc17c"/><path d="m288 208c0 26.507812-21.492188 48-48 48s-48-21.492188-48-48 21.492188-48 48-48 48 21.492188 48 48zm0 0" fill="#3a6289"/><path d="m229.601562 229.601562-11.203124-11.203124 13.601562-13.597657v-20.800781h16v27.199219zm0 0" fill="#f4c167"/><path d="m0 64h56v16h-56zm0 0" fill="#5da364"/><path d="m136 0h16v48h-16zm0 0" fill="#5da364"/><path d="m72 112h72v16h-72zm0 0" fill="#71bf79"/><path d="m72 280h56v16h-56zm0 0" fill="#71bf79"/><path d="m128 336h16v56h-16zm0 0" fill="#71bf79"/><g fill="#5da364"><path d="m184 392h16v48h-16zm0 0"/><path d="m248 328h72v16h-72zm0 0"/><path d="m392 272h48v16h-48zm0 0"/><path d="m392 112h48v16h-48zm0 0"/><path d="m312 24h16v48h-16zm0 0"/><path d="m408 0h16v48h-16zm0 0"/><path d="m416 176h48v16h-48zm0 0"/><path d="m416 368h48v16h-48zm0 0"/><path d="m328 416h16v48h-16zm0 0"/><path d="m56 416h16v48h-16zm0 0"/><path d="m0 296h48v16h-48zm0 0"/></g><path d="m256 72h16v32h-16zm0 0" fill="#71bf79"/><path d="m344 240h48v16h-48zm0 0" fill="#71bf79"/><path d="m24 192h56v16h-56zm0 0" fill="#5da364"/></svg>