<svg id="Layer_1" enable-background="new 0 0 512 512" height="512" viewBox="0 0 512 512" width="512" xmlns="http://www.w3.org/2000/svg"><g><g><path d="m294.526 512c-25.35 0-45.974-20.624-45.974-45.975l-.052-458.524c0-4.143 3.357-7.5 7.499-7.501s7.5 3.357 7.501 7.499l.052 458.525c0 17.08 13.895 30.976 30.974 30.976s30.974-13.896 30.974-30.975v-24.025c0-4.143 3.358-7.5 7.5-7.5s7.5 3.357 7.5 7.5v24.025c0 25.351-20.624 45.975-45.974 45.975z" fill="#e8f3ff"/><g><path d="m504.5 286c-27.471-26.649-71.929-26.649-99.4 0-27.471-26.649-71.929-26.649-99.4 0-27.471-26.649-71.929-26.649-99.4 0-27.471-26.649-71.929-26.649-99.4 0-27.471-26.649-71.929-26.649-99.4 0 0-137.243 111.257-248.5 248.5-248.5s248.5 111.257 248.5 248.5z" fill="#ffd54d"/><g><path d="m463.751 266.566c14.894 1.847 29.298 8.325 40.749 19.434 0-137.243-111.257-248.5-248.5-248.5-6.733 0-13.403.268-20 .793 121.482 9.675 218.348 106.715 227.751 228.273z" fill="#ffc919"/></g><g><path d="m256 37.611c-81.82 0-148.203 110.908-148.752 248.068 27.497-26.319 71.695-26.218 99.052.321 27.471-26.649 71.929-26.649 99.4 0 27.357-26.539 71.555-26.64 99.052-.321-.549-137.16-66.932-248.068-148.752-248.068z" fill="#fff5b5"/></g><g><path d="m256 37.611c-27.89 0-50.526 110.541-50.788 247.385.362.336.732.658 1.088 1.003 27.471-26.649 71.929-26.649 99.4 0 .356-.345.726-.667 1.088-1.003-.262-136.844-22.898-247.385-50.788-247.385z" fill="#ffd54d"/></g></g></g><g><path d="m93.467 459.691 40.707-36.957 40.708 36.957v-193.854h-81.415z" fill="#d4d9ff"/><g><path d="m134.882 265.837v157.539l40 36.315v-193.854z" fill="#c7cdff"/></g><g><g><path d="m134.174 364.526c15.968 0 26.069-22.468 38.983-29.945 13.311-7.707 37.739-5.48 45.454-18.781 7.488-12.911-6.403-32.785-6.403-48.752s13.892-35.841 6.403-48.752c-7.715-13.301-32.142-11.074-45.454-18.781-12.914-7.477-23.015-29.945-38.983-29.945s-26.069 22.468-38.983 29.945c-13.311 7.707-37.739 5.48-45.454 18.781-7.488 12.911 6.403 32.785 6.403 48.752s-13.89 35.841-6.402 48.752c7.715 13.301 32.142 11.074 45.454 18.781 12.914 7.477 23.015 29.945 38.982 29.945z" fill="#ff8ccc"/></g><path d="m218.611 218.296c-7.715-13.301-32.142-11.074-45.454-18.781-12.914-7.477-23.015-29.945-38.983-29.945-7.708 0-14.05 5.236-20 11.494 6.376 6.705 58.033 27.524 58.033 85.984 0 61.523-51.657 79.279-58.033 85.984 5.95 6.258 12.292 11.494 20 11.494 15.968 0 26.069-22.468 38.983-29.945 13.311-7.707 37.739-5.48 45.454-18.781 7.488-12.911-6.403-32.785-6.403-48.752s13.891-35.842 6.403-48.752z" fill="#ff78c2"/><ellipse cx="134.174" cy="267.048" fill="#fff" rx="48.787" ry="48.736"/></g></g></g></svg>