<svg id="_30_Premium" height="512" viewBox="0 0 512 512" width="512" xmlns="http://www.w3.org/2000/svg" xmlns:xlink="http://www.w3.org/1999/xlink" data-name="30_Premium"><linearGradient id="New_Gradient_Swatch_1" gradientUnits="userSpaceOnUse" x1="296.065" x2="356.593" y1="391.935" y2="331.407"><stop offset="0" stop-color="#fbebca"/><stop offset="1" stop-color="#fcf2dc"/></linearGradient><linearGradient id="New_Gradient_Swatch_3" gradientUnits="userSpaceOnUse" x1="171.515" x2="340.485" y1="476.486" y2="307.515"><stop offset="0" stop-color="#f6d084"/><stop offset="1" stop-color="#fae4b9"/></linearGradient><linearGradient id="New_Gradient_Swatch_17" gradientUnits="userSpaceOnUse" x1="134.435" x2="377.565" y1="297.565" y2="54.435"><stop offset="0" stop-color="#8177b8"/><stop offset="1" stop-color="#aba4d0"/></linearGradient><linearGradient id="New_Gradient_Swatch_11" gradientUnits="userSpaceOnUse" x1="168.36" x2="343.64" y1="263.64" y2="88.36"><stop offset="0" stop-color="#d5d2e7"/><stop offset="1" stop-color="#f1f0f7"/></linearGradient><linearGradient id="New_Gradient_Swatch_2" gradientUnits="userSpaceOnUse" x1="205.534" x2="306.466" y1="229.989" y2="129.057"><stop offset="0" stop-color="#e87676"/><stop offset="1" stop-color="#f2b3b3"/></linearGradient><g id="gradient"><path d="m447.446 387.632-147.079-147.078a12 12 0 0 0 -16.971 0l-67.881 67.883a12 12 0 0 0 0 16.97l147.078 147.078a12 12 0 0 0 20.252-6.131l9.745-48.724 48.724-9.745a12 12 0 0 0 6.132-20.253z" fill="url(#New_Gradient_Swatch_1)"/><path d="m304 276h-96a12 12 0 0 0 -12 12v208a12 12 0 0 0 18.656 9.984l41.344-27.562 41.344 27.562a12 12 0 0 0 18.656-9.984v-208a12 12 0 0 0 -12-12z" fill="url(#New_Gradient_Swatch_3)"/><circle cx="256" cy="176" fill="url(#New_Gradient_Swatch_17)" r="172"/><circle cx="256" cy="176" fill="url(#New_Gradient_Swatch_11)" r="124"/><path d="m327.522 151.964a12 12 0 0 0 -9.626-8.158l-35.23-5.306-15.933-31.867a12 12 0 0 0 -21.466 0l-15.933 31.867-35.23 5.306a12 12 0 0 0 -6.634 20.415l25.384 25-5.841 35.145a12 12 0 0 0 17.367 12.618l31.62-16.414 31.62 16.415a12 12 0 0 0 17.367-12.618l-5.841-35.145 25.384-25a12 12 0 0 0 2.992-12.258z" fill="url(#New_Gradient_Swatch_2)"/></g></svg>