<svg height="512pt" viewBox="0 0 512 512" width="512pt" xmlns="http://www.w3.org/2000/svg" fill="#f3f3f3" fill-opacity=".15"><path d="M507.285 211.535l-42.66-17.062A216.72 216.72 0 00447 152.047l18.125-42.293a7.497 7.497 0 00-1.59-8.258l-53.031-53.031a7.495 7.495 0 00-8.258-1.59L359.953 65a216.72 216.72 0 00-42.426-17.625l-17.062-42.66A7.504 7.504 0 00293.5 0h-75a7.504 7.504 0 00-6.965 4.715l-17.062 42.66A216.58 216.58 0 00152.047 65l-42.293-18.125a7.502 7.502 0 00-8.258 1.59l-53.031 53.031a7.502 7.502 0 00-1.59 8.262L65 152.047a216.819 216.819 0 00-17.625 42.426l-42.66 17.062A7.504 7.504 0 000 218.5v75a7.504 7.504 0 004.715 6.965l42.66 17.062A216.342 216.342 0 0065 359.953l-18.125 42.293a7.497 7.497 0 001.59 8.258l53.031 53.031a7.497 7.497 0 008.258 1.59L152.047 447a216.48 216.48 0 0042.426 17.625l17.062 42.66A7.504 7.504 0 00218.5 512h75a7.494 7.494 0 006.96-4.715l17.067-42.66A216.58 216.58 0 00359.953 447l42.29 18.125a7.503 7.503 0 008.26-1.59l53.032-53.031a7.504 7.504 0 001.59-8.258L447 359.953a216.72 216.72 0 0017.625-42.426l42.66-17.062A7.504 7.504 0 00512 293.5v-75a7.504 7.504 0 00-4.715-6.965zM497 288.422l-41.36 16.543a7.506 7.506 0 00-4.445 4.965 201.437 201.437 0 01-19.058 45.882 7.499 7.499 0 00-.375 6.665l17.578 41.007-45.856 45.856-41.007-17.578a7.512 7.512 0 00-6.664.375 201.51 201.51 0 01-45.883 19.058 7.506 7.506 0 00-4.965 4.446L288.422 497h-64.844l-16.547-41.36a7.491 7.491 0 00-4.96-4.445 201.437 201.437 0 01-45.883-19.058 7.512 7.512 0 00-6.665-.375l-41.011 17.578-45.852-45.856 17.574-41.007a7.486 7.486 0 00-.375-6.664 201.686 201.686 0 01-19.058-45.883 7.51 7.51 0 00-4.442-4.965L15 288.422v-64.844l41.36-16.547a7.491 7.491 0 004.445-4.96 201.408 201.408 0 0119.058-45.88 7.5 7.5 0 00.375-6.664L62.66 108.512l45.852-45.852 41.015 17.578a7.5 7.5 0 006.664-.375 201.408 201.408 0 0145.88-19.058 7.491 7.491 0 004.96-4.446L223.578 15h64.844l16.547 41.36a7.491 7.491 0 004.96 4.445 201.408 201.408 0 0145.88 19.058 7.5 7.5 0 006.664.375l41.015-17.578 45.852 45.852-17.578 41.015a7.5 7.5 0 00.375 6.664 201.335 201.335 0 0119.058 45.88 7.491 7.491 0 004.446 4.96L497 223.578zm0 0"/><path d="M256 91c-90.98 0-165 74.02-165 165s74.02 165 165 165 165-74.02 165-165S346.98 91 256 91zm0 315c-82.71 0-150-67.29-150-150s67.29-150 150-150 150 67.29 150 150-67.29 150-150 150zm0 0"/><path d="M256 121c-30.656 0-59.555 10.02-83.57 28.977a7.495 7.495 0 00-1.243 10.53 7.5 7.5 0 0010.536 1.243C203.063 144.902 228.75 136 256 136c66.168 0 120 53.832 120 120s-53.832 120-120 120-120-53.832-120-120c0-27.25 8.902-52.938 25.75-74.277a7.5 7.5 0 00-1.242-10.536 7.5 7.5 0 00-10.535 1.243C131.02 196.445 121 225.344 121 256c0 74.438 60.563 135 135 135s135-60.563 135-135-60.563-135-135-135zm0 0"/><path d="M167.813 311.246l84.437 48.75a7.508 7.508 0 007.5 0l84.438-48.75a7.502 7.502 0 003.75-6.496v-97.5c0-2.68-1.43-5.156-3.75-6.496l-84.438-48.75a7.5 7.5 0 00-7.5 0l-84.438 48.75a7.502 7.502 0 00-3.75 6.496v97.5c0 2.68 1.43 5.156 3.75 6.496zm11.25-91.008l69.437 40.09v80.184l-69.438-40.09zM263.5 340.512v-80.184l69.438-40.09v80.184zM256 167.16l69.438 40.09L256 247.34l-69.438-40.09zm0 0"/></svg>