<svg xmlns="http://www.w3.org/2000/svg">
  <symbol id="logo" viewBox="0 0 513.614 513.614" >
    <g>
      <path d="M508.274 138.691a46.968 46.968 0 004.935-20.995c0-26.065-21.206-47.271-47.271-47.271s-47.271 21.205-47.271 47.271a46.968 46.968 0 004.388 19.855c-3.973 2.698-6.584 7.252-6.584 12.416v39.576l-143.76-37.683v-13.854c0-8.284-6.716-15-15-15s-15 6.716-15 15v13.87L99.144 189.712v-39.75c0-5.164-2.61-9.716-6.582-12.415a46.982 46.982 0 004.386-19.851c0-26.065-21.206-47.271-47.271-47.271S2.406 91.631 2.406 117.697a46.963 46.963 0 004.386 19.851C2.82 140.246.21 144.799.21 149.963v348.651c0 8.284 6.716 15 15 15h68.935c8.284 0 15-6.716 15-15V479.59l42.036.005c.133.003.262.02.395.02s.261-.016.393-.02l57.409.006c.089.002.176.013.265.013s.175-.012.264-.013l57.669.007c.046 0 .09.007.136.007s.089-.006.135-.007l57.928.007h.012l100.685.011v17.315c0 8.284 6.716 15 15 15h66.935c8.284 0 15-6.716 15-15V149.968c-.002-4.5-1.994-8.527-5.133-11.277zm-42.337-38.265c9.523 0 17.271 7.747 17.271 17.271s-7.748 17.271-17.271 17.271-17.271-7.748-17.271-17.271 7.748-17.271 17.271-17.271zM416.47 384.454h-27.623V213.317l27.623 7.241zm-231.828 30V449.6l-28.068-.003v-35.143zm-28.068-30V205.601l28.068-7.397v186.25zm58.068 30h28.068v35.153l-28.068-.003zm58.069 0h28.068v35.159l-28.068-.003zm58.068 0h28.068v35.166l-28.068-.003zm0-30V198.095l28.068 7.358v179h-28.068zm-30-194.222v194.222h-28.068v-201.58zm-58.068 194.222h-28.068V190.298l28.068-7.397zM126.574 213.507v170.946h-27.43V220.737zM49.677 100.426c9.523 0 17.271 7.747 17.271 17.271 0 9.484-7.686 17.202-17.155 17.266h-.231c-9.47-.063-17.155-7.781-17.155-17.266-.001-9.524 7.746-17.271 17.27-17.271zM30.209 483.614V164.962h19.236c.077 0 .153.006.231.006s.154-.005.231-.006h19.236c.002 63.205-.006 258.92 0 318.651H30.209zm68.935-69.16h27.431v35.14l-27.431-.003zm289.703 35.169v-35.169h27.623v35.172zm94.558 32.318H446.47V164.968h36.935z"/>
      <path d="M206.458 75.728c-5.858 5.857-5.858 15.355 0 21.213 5.857 5.857 15.355 5.857 21.213 0 16.564-16.563 43.515-16.563 60.079 0 2.929 2.929 6.768 4.394 10.606 4.394s7.678-1.465 10.606-4.394c5.858-5.857 5.858-15.355 0-21.213-28.26-28.262-74.243-28.262-102.504 0z"/>
      <path d="M189.094 58.363c37.836-37.836 99.398-37.836 137.234 0 2.929 2.929 6.768 4.394 10.606 4.394s7.678-1.465 10.606-4.394c5.858-5.857 5.858-15.355 0-21.213-49.532-49.533-130.128-49.533-179.66 0-5.858 5.857-5.858 15.355 0 21.213 5.858 5.857 15.356 5.857 21.214 0z"/>
    </g>
  </symbol>
  <symbol id="email" viewbox="0 0 18 11">
    <g>
      <path clip-rule="evenodd" d="m.680121 0 8.319879 6.07783 8.3199-6.07783zm-.680121
      9.50268v-8.15617l5.26645 3.84725zm17.4822 1.49732h-16.964447l5.989057-4.90014 2.06695
      1.50995.42624.31138.42624-.31138 2.06696-1.50995zm.5178-9.65349v8.15617l-5.2665-4.30892z" />
    </g>
  </symbol>
  <symbol id="phone" viewbox="0 0 15 16">
    <g>
      <path clip-rule="evenodd" d="m3.76491.0343806c-1.11166.5125784-2.16449 1.0532894-2.902912
      1.9126894-.743629.86546-1.094365 2.00737-.695143 3.6009 1.169215 4.66703 5.165665 8.63833
      9.597175 10.27163 1.19487.3867 2.54117.1511 3.42717-.7015.8085-.778 1.5125-2.0526
      1.7718-3.1625.171-.7317-.2727-1.2672-.8797-1.5693l-3.6333-1.80808c-.92031-.24474-1.39971.89725-1.71963
      1.56888-1.43286-.88638-2.52183-1.97467-3.26316-3.49557.64634-.34518 1.71558-.88991
      1.5005-1.80486l-1.71234-3.935653c-.19693-.65483-.84606-1.030622-1.49046-.8766364z" />
    </g>
  </symbol>
  <symbol id="faac-logo" viewBox="0 0 1051.25 417.151">
    <g>
      <path d="M11.73 43.086v184.031h46.985V170.04h126l40.969-40.969H58.714V83.04h213.099l40.011-40.017zm0 0M463.715 1h-72.86L129.762 262.094h64.035l92-92h127.035v92.969l51.02.062v-.102l92.93-92.93h127.034v92.97l51.024.062L734.7 1l-72.626.105L463.82 199.652zm221.101 127.063H599.63L684.8 42.89zm-270.984 0h-85.187l85.171-85.172zm0 0M1039.719 75.914l-.125-41.875-204.782.031c-38.34.004-88.87 42.078-88.87 99.91 0 57.836 51.14 90.606 88.87 93.122h204.145v-41.993H840.934c-26.399 0-43.5-31.105-43.5-55.425.722-41.793 36.968-53.649 46.562-53.653zm0 0" fill-rule="evenodd"/>
      <path d="M1037.164 391.86l2.27-9.747h10.816l-2.324 9.746zm-23.723-18.684l12.485-.035c-3.13 7.52-6.188 10.32-11.969 13.968-5.766 3.641-12.25 4.942-19.61 4.942-7.972 0-14.492-1.586-19.452-5.832-4.938-4.227-7.407-10.14-7.407-17.739 0-6.57 1.574-13.027 4.75-19.386 3.176-6.336 7.715-11.184 13.617-14.48 5.926-3.313 14.473-5.337 22.047-5.337 7.852 0 13.493 1.516 18.094 5.184 4.59 3.66 5.23 7.644 5.23 13.676l-11.074-.13c-.047-3.82-.933-5.519-3.586-7.679-2.636-2.144-6.136-3.234-10.464-3.234-5.008 0-10.559 2.347-14.25 4.965-3.668 2.597-6.563 6.55-8.657 11.863-2.093 5.312-3.148 10.43-3.148 15.332 0 5.14 1.39 8.992 4.137 11.555 2.757 2.574 6.285 3.746 10.32 3.445 12.637-.938 16.46-5.016 18.937-11.078zm-88.562 10.918l-1.242 5.96c-2.75.653-5.48 1.301-8.059 1.301-4.574 0-8.797-.382-11.5-2.437-2.02-1.535-1.984-4.29-1.984-6.953 0-1.344-.04-4.492 1.199-9.317l8.64-33.656h-9.101l1.426-7.937h9.101l3.73-14.97 10.93.032-3.07 14.961h11.309l-1.707 7.914h-11.18l-8.25 31.903c-1.11 4.289-1.45 6.906-1.45 7.753 0 3.262.49 5.817 4.852 5.817 2.536 0 4.36.082 6.356-.371zm-51.496-22.64c-4.602 0-11.465-.2-15.992.089-9.489.605-16.446 2.539-21.98 8.36-1.587 1.667-2.376 3.488-2.376 5.495 0 2.692 1.25 4.895 3.774 6.614 2.5 1.734 6.074 2.601 10.73 2.601 4.313 0 8.453-.832 12.422-2.511 3.969-1.68 7.113-4.008 9.434-7.012 2.308-2.992 2.69-8.09 3.988-13.637zm-6.18 22.956c-4.351 3.082-7.86 4.39-11.86 5.793-4.019 1.41-8.323 2.106-12.913 2.106-6.79 0-12.246-1.645-16.414-4.934-4.157-3.285-4.895-4.79-4.895-9.922 0-3.394.942-6.383 2.817-8.992 1.863-2.598 4.347-4.688 7.425-6.262 3.094-1.586 6.754-3.89 11.153-5.043 9.816-2.578 18.054-2.726 32.66-2.765.972-2.832 1.168-6.52 1.168-8.395 0-2.398-.688-4.875-2.817-6.258-2.93-1.894-6.664-2.312-12.297-2.312-5.273 0-10.128 1.316-13.507 3.254-3.364 1.925-4.297 3.554-5.832 7.105l-12.18.266c2.578-6.008 5.168-9.863 10.773-13.063 5.606-3.199 12.153-4.8 20.692-4.8 9.082 0 16.187-.137 21.52 3.417 4.03 2.688 5.476 6.895 5.476 11.145 0 3.238-.567 6.984-1.703 11.258l-4.043 15.078c-.457 1.707-4.656 19.125-4.867 20.05l-11.403-.034c.805-1.985 1.067-3.739 1.047-6.692zm-220.719-16.95c0 5.74 1.637 10.09 4.887 13.048 3.25 2.96 7.399 4.449 12.426 4.449 2.625 0 5.23-.453 7.789-1.352 2.582-.902 4.976-2.253 7.191-4.097a28.065 28.065 0 005.668-6.29 33.282 33.282 0 003.782-7.6c1.406-3.782 2.097-7.407 2.097-10.895 0-5.504-1.636-9.778-4.91-12.813-3.297-3.035-7.422-4.566-12.398-4.566-3.852 0-7.356.785-10.512 2.332-3.18 1.547-6.04 3.8-8.598 6.8-2.558 2.977-4.426 6.446-5.62 10.403-1.2 3.957-1.802 7.484-1.802 10.582zm-12.168 1.02c0-11.875 4.125-21.71 12.356-29.507 6.797-6.41 15.695-9.621 26.734-9.621 8.621 0 15.582 2.293 20.883 6.875 5.277 4.586 7.93 10.777 7.93 18.554 0 6.996-1.66 13.5-5.004 19.516-3.317 6.015-8.067 10.64-14.195 13.832-6.157 3.215-12.61 4.82-19.41 4.82-5.579 0-10.65-1.015-15.212-3.035-4.586-2.02-8.066-4.898-10.464-8.601-2.418-3.704-3.618-7.977-3.618-12.833zm-68.082 14.649c-9.367 6.918-15.996 9.82-24.757 9.82-5.375 0-9.723-1.293-13.04-3.894-3.312-2.606-4.972-5.801-4.972-9.563 0-2.492 1.074-6.691 2.441-12.812l7.813-34.93h11.941l-8.797 39.074c-.726 3.223-1.277 5.684-1.277 7.45 0 2.035.805 3.632 2.441 4.753 1.614 1.141 4.012 1.711 7.168 1.711 8.637 0 14.176-2.246 19.438-6.761 3.902-3.348 4.91-8.157 7.894-19.739l6.633-25.738h11.805l-15.434 59.195h-10.976zm-222.402 29.984l15.7-20.457-9.829-62.472h12l5.067 33.93c1.003 6.695 1.699 9.327 2.789 15.71l29.972-49.64h11.895l-35.957 55.793-21.688 27.187c-2.972 0-4.23-.031-9.949-.05zm-32.055-21.136l18.309-84.829h11.418l-18.309 84.829zm-61-13.137c1.54 4.058 7.86 7.355 15.59 7.355 6.606 0 11.211-.953 16.617-7.011 5.625-6.313 9.235-15.684 9.235-23.418 0-5.7-.367-11.407-3.117-14.528-2.73-3.097-6.258-4.285-10.352-4.285-2.926 0-9.508 2.258-12.148 3.57-3.375 1.676-6.649 4.223-9.04 7.247-2.863 3.617-7.484 29.23-6.785 31.07zm-20.52 37.312l18.61-85 11.711-.011-1.398 7.015c4.28-3.254 5.246-3.922 8.363-5.508 3.102-1.578 11.043-3.507 14.531-3.507 6.438 0 12.586 2.515 17.235 6.77 3.734 3.417 5.308 8.538 5.222 17.25-.125 13.046-7.527 26.612-17.777 33.624-5.777 3.957-12.809 7.145-19.867 7.145-8.106 0-12.434-.922-19.227-7.164l-5.984 29.386zm-109.913-23.03l14.715-62.032h10.882l-1.761 8.348c4.996-4.926 16.058-9.66 23.695-9.66 8.844 0 14.348 3.85 16.258 11.425 6.554-5.68 14.953-11.8 24.351-11.8 5.868 0 10.192 1.59 13.13 4.038 2.933 2.45 4.097 6.102 4.097 10.524 0 1.914-.266 4.824-1.254 9.238l-8.941 39.918-10.946.004 8.59-40.762c.711-3.375.89-5.668.89-7.101 0-5.676-3.113-7.227-9.16-7.227-6.55 0-7.663.281-11.32 2.453-11.433 6.778-9.53 6.957-13.035 22.555l-6.754 30.094h-11.11l8.77-41.809c1.29-6.148 1.829-13.578-8.261-13.738-4.684-.074-7.621.324-11.02 2.754-12.758 9.113-10.37 9.554-13.48 23.613l-6.442 29.164zm-30.64-.067l13.44-62.184 11.793-.02-13.44 62.184zm16.183-73.97l2.918-12.03h11.418l-2.918 12.03zm829.074 72.08l13.988-60 11.793-.02-13.988 60zm16.73-72.485l2.918-10.606h11.418l-2.918 10.606zm-243.175 72.07l14.562-58.879h10.883l-1.762 8.344c4.996-4.922 16.059-9.66 23.696-9.66 8.843 0 14.347 3.851 16.257 11.425 6.555-5.675 14.953-11.8 24.352-11.8 5.867 0 10.191 1.593 13.129 4.043 2.933 2.449 4.097 6.101 4.097 10.523 0 1.91-.046 4.879-1.253 9.234l-10.293 37.07-10.946.005 9.942-37.914c.875-3.336.89-5.668.89-7.102 0-5.676-3.113-7.223-9.16-7.223-6.55 0-7.664.282-11.32 2.45-11.434 6.777-8.735 7.164-13.035 22.554l-7.543 26.996h-11.106l9.555-38.707c1.504-6.101 1.828-13.578-8.262-13.742-4.683-.074-7.62.328-11.02 2.754-12.757 9.113-10.093 9.621-13.48 23.613l-6.293 26.016zm-85.79-6.316l-1.238 5.96c-2.754.653-5.484 1.305-8.062 1.305-4.57 0-8.793-.387-11.496-2.441-2.02-1.535-1.985-4.29-1.985-6.953 0-1.34-.043-4.493 1.196-9.313l8.64-33.656h-9.101l1.43-7.938h9.097l3.734-14.972 10.926.031-3.066 14.961h11.308l-1.707 7.918h-11.18l-8.25 31.898c-1.109 4.29-1.452 6.907-1.452 7.754 0 3.262.488 5.817 4.855 5.817 2.535 0 4.36.086 6.352-.371zM496.16 362.5c-4.601 0-11.465-.2-15.988.09-9.492.605-16.445 2.543-21.98 8.363-1.587 1.668-2.38 3.488-2.38 5.492 0 2.696 1.25 4.899 3.774 6.618 2.5 1.734 6.078 2.601 10.73 2.601 4.313 0 8.454-.832 12.422-2.512 3.969-1.683 7.114-4.007 9.434-7.011 2.312-2.996 2.691-8.09 3.988-13.641zm-6.176 22.96c-4.351 3.083-7.863 4.392-11.859 5.794-4.02 1.406-8.328 2.105-12.914 2.105-6.79 0-12.246-1.644-16.414-4.933-4.16-3.285-4.895-4.793-4.895-9.922 0-3.395.942-6.383 2.813-8.992 1.863-2.598 4.351-4.688 7.426-6.262 3.097-1.586 6.757-3.89 11.152-5.047 9.816-2.578 18.055-2.723 32.664-2.765.969-2.829 1.164-6.52 1.164-8.391 0-2.399-.683-4.879-2.816-6.258-2.93-1.894-6.664-2.316-12.293-2.316-5.274 0-10.133 1.32-13.512 3.257-3.36 1.926-4.293 3.555-5.832 7.106l-12.18.262c2.578-6.008 5.172-9.86 10.778-13.059 5.601-3.2 12.152-4.8 20.687-4.8 9.082 0 16.188-.137 21.52 3.413 4.035 2.692 5.48 6.895 5.48 11.149 0 3.238-.57 6.984-1.703 11.258l-4.047 15.078c-.457 1.707-4.652 19.125-4.863 20.05l-11.402-.039c.804-1.98 1.066-3.734 1.046-6.687zM1 366.013l11.695.09c-.011 4.683-.535 5.336 1.407 9.742 1.351 3.062 4.84 5.008 9.03 6.547 4.22 1.539 9.204 2.32 15 2.32 8.22 0 14.477-1.535 18.81-4.64 4.316-3.094 8.87-7.829 8.87-11.813 0-2.77-1.128-5.336-3.425-7.594-11.09-10.875-49.903-3.012-49.98-28.726-.044-15.043 17.593-25.333 34.3-25.333 8.387 0 15.941-.164 21.805 1.946C84.52 314.305 83.8 322.574 83.5 330.984l-11.418-.27c0-8.644-3.305-9.632-6.156-12.073-3.469-2.973-13.696-4-18.399-3.73-7.828.448-13.136 2.144-17.28 5.034-3.184 2.22-6.493 7.551-6.493 11.203 0 11.137 17.351 10.282 26.719 12.797 14.324 3.852 29.027 7.7 27.933 22.852-1.05 14.52-24.379 27.64-40.754 27.64-11.668 0-21.16-2.167-28.535-6.503-7.36-4.329-8.07-10.653-8.117-21.922"/>
    </g>
  </symbol>
  <symbol id="gates" viewBox="0 -84 512 512">
    <g>
      <path d="m39.566406 288.109375h-32.066406v-248.5c0-4.429687 3.589844-8.015625 8.015625-8.015625h16.03125c4.429687 0 8.015625 3.585938 8.015625 8.015625v248.5zm0 0" fill="#FF3D53"/>
      <path d="m15.515625 31.59375h16.03125c4.429687 0 8.015625 3.585938 8.015625 8.015625v32.0625h-32.0625v-32.0625c0-4.429687 3.589844-8.015625 8.015625-8.015625zm0 0" fill="#FF3D53"/>
      <path d="m71.628906 272.074219 160.324219 64.132812v-224.453125l-160.324219-64.128906zm0 0" fill="currentColor"/>
      <path d="m440.371094 272.074219-160.324219 64.132812v-224.453125l160.324219-64.128906zm0 0" fill="currentColor"/>
      <path d="m504.5 288.109375h-32.066406v-248.5c0-4.429687 3.589844-8.015625 8.015625-8.015625h16.035156c4.425781 0 8.015625 3.585938 8.015625 8.015625zm0 0" fill="#FF3D53"/>
      <path d="m480.453125 31.59375h16.03125c4.425781 0 8.015625 3.585938 8.015625 8.015625v32.0625h-32.066406v-32.0625c0-4.429687 3.589844-8.015625 8.019531-8.015625zm0 0" fill="#FF3D53"/>
      <path d="m263.539062 71.640625c0 4.164063-3.375 7.539063-7.539062 7.539063s-7.539062-3.375-7.539062-7.539063 3.375-7.539063 7.539062-7.539063 7.539062 3.375 7.539062 7.539063zm0 0"/>
      <path d="m226.898438 23.09375c17.953124-10.785156 40.25-10.785156 58.203124 0 1.207032.726562 2.539063 1.070312 3.851563 1.070312 2.546875 0 5.03125-1.296874 6.4375-3.636718 2.132813-3.550782.984375-8.160156-2.566406-10.292969-22.714844-13.644531-50.933594-13.644531-73.648438 0-3.550781 2.132813-4.699219 6.742187-2.566406 10.292969 2.132813 3.550781 6.738281 4.699218 10.289063 2.566406zm0 0"/>
      <path d="m278.878906 48.050781c2.128906-3.554687.980469-8.160156-2.570312-10.292969-12.527344-7.519531-28.089844-7.519531-40.617188 0-3.550781 2.132813-4.699218 6.738282-2.570312 10.292969 2.132812 3.550781 6.738281 4.703125 10.292968 2.570313 7.765626-4.660156 17.410157-4.660156 25.171876 0 1.210937.722656 2.539062 1.070312 3.855468 1.070312 2.546875 0 5.03125-1.300781 6.4375-3.640625zm0 0"/>
      <path d="m496.484375 24.09375h-16.03125c-8.558594 0-15.515625 6.957031-15.515625 15.515625v24.5625h-17.066406v-16.546875c0-2.488281-1.234375-4.816406-3.292969-6.210938-2.0625-1.394531-4.679687-1.679687-6.992187-.753906l-160.320313 64.128906c-2.847656 1.140626-4.714844 3.898438-4.714844 6.964844v224.453125c0 2.488281 1.234375 4.8125 3.292969 6.207031 1.261719.855469 2.726562 1.292969 4.207031 1.292969.941407 0 1.886719-.179687 2.785157-.539062l160.320312-64.128907c2.847656-1.140624 4.714844-3.894531 4.714844-6.960937v-16.550781h17.066406v32.582031c0 4.140625 3.355469 7.5 7.5 7.5h32.0625c4.140625 0 7.5-3.359375 7.5-7.5v-248.5c0-8.558594-6.960938-15.515625-15.515625-15.515625zm-16.546875 15.515625c0-.285156.230469-.515625.515625-.515625h16.03125c.285156 0 .515625.230469.515625.515625v24.5625h-17.0625zm-128.261719 51.570313 17.066407-6.828126v208.296876l-17.066407 6.828124zm-15 214.296874-17.0625 6.824219v-208.296875l17.0625-6.824218zm-49.128906-188.644531 17.066406-6.828125v208.296875l-17.066406 6.824219zm145.324219 150.167969-17.0625 6.824219v-146.039063c0-4.144531-3.359375-7.5-7.5-7.5-4.144532 0-7.5 3.355469-7.5 7.5v152.039063l-17.066406 6.824219v-208.296876l17.066406-6.824218v24.191406c0 4.140625 3.355468 7.5 7.5 7.5 4.140625 0 7.5-3.359375 7.5-7.5v-30.191406l17.0625-6.824219zm15-26.472656v-161.355469h17.0625v161.355469zm32.066406 40.082031v-201.4375h17.0625v201.4375zm0 0"/>
      <path d="m234.738281 104.789062-160.324219-64.128906c-2.308593-.925781-4.929687-.644531-6.988281.753906-2.0625 1.394532-3.296875 3.722657-3.296875 6.210938v16.546875h-17.066406v-24.566406c0-8.554688-6.957031-15.515625-15.515625-15.515625h-16.03125c-8.554687.003906-15.515625 6.960937-15.515625 15.519531v248.5c0 4.140625 3.359375 7.5 7.5 7.5h32.0625c4.144531 0 7.5-3.359375 7.5-7.5v-32.582031h17.066406v16.546875c0 3.066406 1.867188 5.824219 4.714844 6.964843l160.320312 64.128907c.898438.359375 1.84375.535156 2.785157.535156 1.480469 0 2.945312-.4375 4.207031-1.289063 2.058594-1.394531 3.292969-3.722656 3.292969-6.210937v-224.449219c.003906-3.066406-1.863281-5.824218-4.710938-6.964844zm-59.414062-7.609374 17.0625 6.824218v208.296875l-17.0625-6.824219zm-15 202.296874-17.066407-6.828124v-208.296876l17.066407 6.828126zm-144.808594-260.382812h16.03125c.285156 0 .515625.230469.515625.515625v24.5625h-17.0625v-24.5625c0-.285156.230469-.515625.515625-.515625zm16.546875 241.515625h-17.0625v-201.4375h17.0625zm15-40.082031v-161.355469h17.066406v161.355469zm32.066406-181.824219 17.0625 6.824219v150.4375c0 4.140625 3.359375 7.5 7.5 7.5 4.144532 0 7.5-3.359375 7.5-7.5v-144.4375l17.066406 6.824218v208.296876l-17.066406-6.824219v-31.800781c0-4.140626-3.355468-7.5-7.5-7.5-4.140625 0-7.5 3.359374-7.5 7.5v25.800781l-17.0625-6.828125zm145.324219 266.425781-17.066406-6.828125v-208.296875l17.066406 6.828125zm0 0"/>
    </g>
  </symbol>
  <symbol id="sliding-gates" viewBox="0 -36 512 512">
    <g>
      <path d="m70 150h42v40h-42zm0 0"/>
      <path d="m152 150h42v40h-42zm0 0"/>
      <path d="m336 150c11.050781 0 20 8.949219 20 20 0 11.039062-8.960938 20-20 20h-20v-40zm0 0"/>
      <path d="m234 150h42v40h-42zm0 0"/>
      <path d="m336 350h-266v40h266c11.050781 0 20-8.949219 20-20s-8.949219-20-20-20zm0 0"/>
      <path d="m316 350h-40c0-32.289062 0-159.675781 0-220 0-11.050781 8.949219-20 20-20 11.039062 0 20 8.960938 20 20zm0 0" fill="currentColor"/>
      <path d="m234 350h-40c0-32.289062 0-159.675781 0-220 0-11.050781 8.949219-20 20-20 11.039062 0 20 8.960938 20 20zm0 0" fill="currentColor"/>
      <path d="m152 350h-40c0-10.609375 0-210.769531 0-220 0-11.050781 8.949219-20 20-20 11.039062 0 20 8.960938 20 20zm0 0" fill="currentColor"/>
      <path d="m10 390h492v40h-492zm0 0" fill="#ff663b"/>
      <path d="m502 70v320h-60v-320zm0 0" fill="#d9e7ec"/>
      <path d="m502 40c0 16.570312-13.429688 30-30 30s-30-13.429688-30-30 13.429688-30 30-30 30 13.429688 30 30zm0 0" fill="currentColor"/>
      <path d="m70 390h-60v-320h60zm0 0" fill="#d9e7ec"/>
      <path d="m70 40c0 16.570312-13.429688 30-30 30s-30-13.429688-30-30 13.429688-30 30-30 30 13.429688 30 30zm0 0" fill="currentColor"/>
      <path d="m142 390c0 5.523438-4.476562 10-10 10s-10-4.476562-10-10 4.476562-10 10-10 10 4.476562 10 10zm0 0"/>
      <path d="m10 440h492c5.523438 0 10-4.476562 10-10 0-30.691406 0-342.578125 0-360 0-4.0625-2.425781-7.550781-5.902344-9.113281 3.742188-6.085938 5.902344-13.238281 5.902344-20.886719 0-22.054688-17.945312-40-40-40s-40 17.945312-40 40c0 7.648438 2.160156 14.800781 5.902344 20.886719-3.476563 1.5625-5.902344 5.050781-5.902344 9.113281v310h-67.71875c1.109375-3.128906 1.71875-6.492188 1.71875-10 0-16.542969-13.457031-30-30-30h-10v-140h10c16.574219 0 30-13.425781 30-30 0-16.542969-13.457031-30-30-30h-10v-10c0-16.574219-13.425781-30-30-30-16.542969 0-30 13.457031-30 30v10h-22v-10c0-16.574219-13.425781-30-30-30-16.542969 0-30 13.457031-30 30v10h-22v-10c0-16.574219-13.425781-30-30-30-16.542969 0-30 13.457031-30 30v10h-22v-70c0-4.0625-2.425781-7.550781-5.902344-9.113281 3.742188-6.085938 5.902344-13.238281 5.902344-20.886719 0-22.054688-17.945312-40-40-40s-40 17.945312-40 40c0 7.648438 2.160156 14.800781 5.902344 20.886719-3.476563 1.5625-5.902344 5.050781-5.902344 9.113281v360c0 5.523438 4.476562 10 10 10zm50-360v300h-40v-300zm42 260h-22v-140h22zm370-320c11.027344 0 20 8.972656 20 20s-8.972656 20-20 20-20-8.972656-20-20 8.972656-20 20-20zm-20 60h40v300h-40zm-106 290c0 5.515625-4.484375 10-10 10h-164c-5.523438 0-10 4.476562-10 10s4.476562 10 10 10h320v20h-472v-20h70c5.523438 0 10-4.476562 10-10s-4.476562-10-10-10h-10v-20h256c5.515625 0 10 4.484375 10 10zm-162-30h-22v-140h22zm82 0h-22v-140h22zm70-180c5.515625 0 10 4.484375 10 10 0 5.519531-4.476562 10-10 10h-10v-20zm-50-30c0-5.515625 4.484375-10 10-10 5.519531 0 10 4.476562 10 10v210h-20zm-20 30v20h-22v-20zm-62-30c0-5.515625 4.484375-10 10-10 5.519531 0 10 4.476562 10 10v210h-20zm-20 30v20h-22v-20zm-62-30c0-5.515625 4.484375-10 10-10 5.519531 0 10 4.476562 10 10v210h-20zm-20 50h-22v-20h22zm-62-160c11.027344 0 20 8.972656 20 20s-8.972656 20-20 20-20-8.972656-20-20 8.972656-20 20-20zm0 0"/>
      <path d="m345 280h41.859375l-2.929687 2.929688c-3.90625 3.90625-3.90625 10.234374 0 14.140624s10.234374 3.90625 14.140624 0l20-20c3.820313-3.816406 3.960938-10.179687 0-14.140624l-20-20c-3.902343-3.90625-10.234374-3.90625-14.140624 0s-3.90625 10.234374 0 14.140624l2.929687 2.929688h-41.859375c-5.523438 0-10 4.476562-10 10s4.476562 10 10 10zm0 0"/>
    </g>
  </symbol>
  <symbol id="barrier" viewBox="0 0 512.002 512.002">
    <g>
      <path style="fill:currentColor;" d="M130,416.002V211v-45v-9.999c0-33-26.999-59.999-60-59.999s-60,26.999-60,59.999v260h120V416.002z
      M90,156.002c0,11.045-8.954,20.001-20,20.001s-20-8.955-20-20.001c0-11.046,8.954-20,20-20S90,144.956,90,156.002z"/>
      <circle style="fill:#8DEF61;" cx="70" cy="156.001" r="20"/>
      <polygon style="fill:#FFB52E;" points="130,166 130,211 160.001,211 205.001,166 	"/>
      <polygon style="fill:#fff;" points="205.001,166 160.001,211 240.001,211 285.001,166 	"/>
      <polygon style="fill:#FFB52E;" points="285.001,166 240.001,211 320.001,211 365.001,166 	"/>
      <polygon style="fill:#fff;" points="365.001,166 320.001,211 400.001,211 445.001,166 	"/>
      <path style="fill:#FFB52E;" d="M445.001,166l-45,45h79.501c12.375,0,22.5-10.124,22.5-22.5c0-12.375-10.125-22.5-22.5-22.5H445.001
      z"/>
    </g>
    <g>
      <path d="M479.502,156L479.502,156C479.499,156,479.505,156,479.502,156L479.502,156c-0.003,0-339.499,0-339.502,0l0,0
      c-0.003,0,0.003,0,0,0l0,0c-0.003,0,0.003,0,0,0l0,0c-0.001-38.597-31.402-69.998-70-69.998S0,117.404,0,156.001v260
      c0,5.523,4.477,10,10,10h120c5.523,0,10-4.477,10-10V221h339.502c17.92,0,32.5-14.58,32.5-32.5
      C512.002,170.579,497.422,156,479.502,156z M344.144,201l25-25h51.715l-25,25H344.144z M264.144,201l25-25h51.715l-25,25H264.144z
      M184.144,201l25-25h51.715l-25,25H184.144z M20,406.002v-22.11h37.626c5.523,0,10-4.477,10-10s-4.477-10-10-10H20v-207.89
      c0-27.57,22.43-49.999,50-49.999s50,22.43,50,49.999l0,0v44.999H82.374c-5.523,0-10,4.477-10,10c0,5.523,4.477,10,10,10H120v185.002
      H20V406.002z M140,176h40.858l-25,25H140V176z M479.502,201h-55.358l25-25h30.358c6.893,0,12.5,5.607,12.5,12.5
      S486.395,201,479.502,201z"/>
      <path d="M100.001,156.002c0-16.542-13.459-30-30.001-30s-30,13.458-30,30s13.458,30.001,30,30.001
      C86.542,186.002,100.001,172.544,100.001,156.002z M70,166.002c-5.514,0-10-4.486-10-10.001c0-5.514,4.486-10,10-10
      c5.515,0,10.001,4.486,10.001,10C80.001,161.516,75.515,166.002,70,166.002z"/>
      <path d="M51.657,201.004h-0.256c-5.523,0-10,4.477-10,10c0,5.523,4.477,10,10,10h0.256c5.523,0,10-4.477,10-10
      S57.18,201.004,51.657,201.004z"/>
      <path d="M88.599,363.895h-0.256c-5.523,0-10,4.477-10,10s4.477,10,10,10h0.256c5.523,0,10-4.477,10-10
      S94.122,363.895,88.599,363.895z"/>
    </g>
  </symbol>
  <symbol id="garage" viewBox="0 0 512 512">
    <g>
      <path d="m496 95.999v400h-480v-400l240-80z" fill="#f9dd79" opacity=".9"/>
      <path d="m496 95.999v320h-160c-176.239 0-320-142.782-320-320l240-80z" fill="#f9dd79"/>
      <path d="m80 159.999h352v336h-352z" fill="#75706d"/>
      <path d="m80 159.999h352v64h-352z" fill="currentColor"/>
      <path d="m80 223.999h352v64h-352z" fill="currentColor"/>
      <path d="m80 223.999h352v32h-352z" fill="currentColor"/>
      <path d="m80 159.999h352v32h-352z" fill="currentColor"/>
      <path d="m501.06 80.819-240-80c-3.28-1.09-6.84-1.09-10.12 0l-240 80c-6.53 2.18-10.94 8.29-10.94 15.18v400c0 8.84 7.16 16 16 16h480c8.84 0 16-7.16 16-16v-400c0-6.89-4.41-13-10.94-15.18zm-405.06 159.18h320v32h-320zm320-32h-320v-32h320zm-320 272v-176h320v176zm384 0h-32c0-9.803 0-311.147 0-320 0-8.84-7.16-16-16-16h-352c-8.84 0-16 7.16-16 16v320h-32v-372.47l224-74.66 224 74.66z"/>
      <circle cx="256" cy="443.999" r="20"/>
      <path d="m207.917 395.916c-6.248 6.248-6.248 16.379 0 22.627 6.248 6.25 16.378 6.248 22.627 0 14.067-14.068 36.841-14.071 50.911 0 3.125 3.125 7.219 4.687 11.314 4.687 14.125 0 21.423-17.205 11.314-27.313-26.574-26.576-69.588-26.58-96.166-.001z"/>
      <path d="m173.976 361.974c-6.249 6.248-6.249 16.379 0 22.627 6.249 6.25 16.38 6.248 22.627 0 32.752-32.75 86.042-32.75 118.794 0 3.124 3.124 7.219 4.687 11.313 4.687 14.126 0 21.423-17.205 11.313-27.313-45.227-45.229-118.819-45.229-164.047-.001z"/>
    </g>
  </symbol>
</svg>