<svg xmlns="http://www.w3.org/2000/svg">
  <symbol id="logo" viewBox="0 0 513.614 513.614" >
    <g>
      <path d="M508.274 138.691a46.968 46.968 0 004.935-20.995c0-26.065-21.206-47.271-47.271-47.271s-47.271 21.205-47.271 47.271a46.968 46.968 0 004.388 19.855c-3.973 2.698-6.584 7.252-6.584 12.416v39.576l-143.76-37.683v-13.854c0-8.284-6.716-15-15-15s-15 6.716-15 15v13.87L99.144 189.712v-39.75c0-5.164-2.61-9.716-6.582-12.415a46.982 46.982 0 004.386-19.851c0-26.065-21.206-47.271-47.271-47.271S2.406 91.631 2.406 117.697a46.963 46.963 0 004.386 19.851C2.82 140.246.21 144.799.21 149.963v348.651c0 8.284 6.716 15 15 15h68.935c8.284 0 15-6.716 15-15V479.59l42.036.005c.133.003.262.02.395.02s.261-.016.393-.02l57.409.006c.089.002.176.013.265.013s.175-.012.264-.013l57.669.007c.046 0 .09.007.136.007s.089-.006.135-.007l57.928.007h.012l100.685.011v17.315c0 8.284 6.716 15 15 15h66.935c8.284 0 15-6.716 15-15V149.968c-.002-4.5-1.994-8.527-5.133-11.277zm-42.337-38.265c9.523 0 17.271 7.747 17.271 17.271s-7.748 17.271-17.271 17.271-17.271-7.748-17.271-17.271 7.748-17.271 17.271-17.271zM416.47 384.454h-27.623V213.317l27.623 7.241zm-231.828 30V449.6l-28.068-.003v-35.143zm-28.068-30V205.601l28.068-7.397v186.25zm58.068 30h28.068v35.153l-28.068-.003zm58.069 0h28.068v35.159l-28.068-.003zm58.068 0h28.068v35.166l-28.068-.003zm0-30V198.095l28.068 7.358v179h-28.068zm-30-194.222v194.222h-28.068v-201.58zm-58.068 194.222h-28.068V190.298l28.068-7.397zM126.574 213.507v170.946h-27.43V220.737zM49.677 100.426c9.523 0 17.271 7.747 17.271 17.271 0 9.484-7.686 17.202-17.155 17.266h-.231c-9.47-.063-17.155-7.781-17.155-17.266-.001-9.524 7.746-17.271 17.27-17.271zM30.209 483.614V164.962h19.236c.077 0 .153.006.231.006s.154-.005.231-.006h19.236c.002 63.205-.006 258.92 0 318.651H30.209zm68.935-69.16h27.431v35.14l-27.431-.003zm289.703 35.169v-35.169h27.623v35.172zm94.558 32.318H446.47V164.968h36.935z"/>
      <path d="M206.458 75.728c-5.858 5.857-5.858 15.355 0 21.213 5.857 5.857 15.355 5.857 21.213 0 16.564-16.563 43.515-16.563 60.079 0 2.929 2.929 6.768 4.394 10.606 4.394s7.678-1.465 10.606-4.394c5.858-5.857 5.858-15.355 0-21.213-28.26-28.262-74.243-28.262-102.504 0z"/>
      <path d="M189.094 58.363c37.836-37.836 99.398-37.836 137.234 0 2.929 2.929 6.768 4.394 10.606 4.394s7.678-1.465 10.606-4.394c5.858-5.857 5.858-15.355 0-21.213-49.532-49.533-130.128-49.533-179.66 0-5.858 5.857-5.858 15.355 0 21.213 5.858 5.857 15.356 5.857 21.214 0z"/>
    </g>
  </symbol>
  <symbol id="email" viewbox="0 0 18 11">
    <g>
      <path clip-rule="evenodd" d="m.680121 0 8.319879 6.07783 8.3199-6.07783zm-.680121
      9.50268v-8.15617l5.26645 3.84725zm17.4822 1.49732h-16.964447l5.989057-4.90014 2.06695
      1.50995.42624.31138.42624-.31138 2.06696-1.50995zm.5178-9.65349v8.15617l-5.2665-4.30892z" />
    </g>
  </symbol>
  <symbol id="phone" viewbox="0 0 15 16">
    <g>
      <path clip-rule="evenodd" d="m3.76491.0343806c-1.11166.5125784-2.16449 1.0532894-2.902912
      1.9126894-.743629.86546-1.094365 2.00737-.695143 3.6009 1.169215 4.66703 5.165665 8.63833
      9.597175 10.27163 1.19487.3867 2.54117.1511 3.42717-.7015.8085-.778 1.5125-2.0526
      1.7718-3.1625.171-.7317-.2727-1.2672-.8797-1.5693l-3.6333-1.80808c-.92031-.24474-1.39971.89725-1.71963
      1.56888-1.43286-.88638-2.52183-1.97467-3.26316-3.49557.64634-.34518 1.71558-.88991
      1.5005-1.80486l-1.71234-3.935653c-.19693-.65483-.84606-1.030622-1.49046-.8766364z" />
    </g>
  </symbol>
  <symbol id="faac-logo" viewBox="0 0 1051.25 417.151">
    <g>
      <path d="M11.73 43.086v184.031h46.985V170.04h126l40.969-40.969H58.714V83.04h213.099l40.011-40.017zm0 0M463.715 1h-72.86L129.762 262.094h64.035l92-92h127.035v92.969l51.02.062v-.102l92.93-92.93h127.034v92.97l51.024.062L734.7 1l-72.626.105L463.82 199.652zm221.101 127.063H599.63L684.8 42.89zm-270.984 0h-85.187l85.171-85.172zm0 0M1039.719 75.914l-.125-41.875-204.782.031c-38.34.004-88.87 42.078-88.87 99.91 0 57.836 51.14 90.606 88.87 93.122h204.145v-41.993H840.934c-26.399 0-43.5-31.105-43.5-55.425.722-41.793 36.968-53.649 46.562-53.653zm0 0" fill-rule="evenodd"/>
      <path d="M1037.164 391.86l2.27-9.747h10.816l-2.324 9.746zm-23.723-18.684l12.485-.035c-3.13 7.52-6.188 10.32-11.969 13.968-5.766 3.641-12.25 4.942-19.61 4.942-7.972 0-14.492-1.586-19.452-5.832-4.938-4.227-7.407-10.14-7.407-17.739 0-6.57 1.574-13.027 4.75-19.386 3.176-6.336 7.715-11.184 13.617-14.48 5.926-3.313 14.473-5.337 22.047-5.337 7.852 0 13.493 1.516 18.094 5.184 4.59 3.66 5.23 7.644 5.23 13.676l-11.074-.13c-.047-3.82-.933-5.519-3.586-7.679-2.636-2.144-6.136-3.234-10.464-3.234-5.008 0-10.559 2.347-14.25 4.965-3.668 2.597-6.563 6.55-8.657 11.863-2.093 5.312-3.148 10.43-3.148 15.332 0 5.14 1.39 8.992 4.137 11.555 2.757 2.574 6.285 3.746 10.32 3.445 12.637-.938 16.46-5.016 18.937-11.078zm-88.562 10.918l-1.242 5.96c-2.75.653-5.48 1.301-8.059 1.301-4.574 0-8.797-.382-11.5-2.437-2.02-1.535-1.984-4.29-1.984-6.953 0-1.344-.04-4.492 1.199-9.317l8.64-33.656h-9.101l1.426-7.937h9.101l3.73-14.97 10.93.032-3.07 14.961h11.309l-1.707 7.914h-11.18l-8.25 31.903c-1.11 4.289-1.45 6.906-1.45 7.753 0 3.262.49 5.817 4.852 5.817 2.536 0 4.36.082 6.356-.371zm-51.496-22.64c-4.602 0-11.465-.2-15.992.089-9.489.605-16.446 2.539-21.98 8.36-1.587 1.667-2.376 3.488-2.376 5.495 0 2.692 1.25 4.895 3.774 6.614 2.5 1.734 6.074 2.601 10.73 2.601 4.313 0 8.453-.832 12.422-2.511 3.969-1.68 7.113-4.008 9.434-7.012 2.308-2.992 2.69-8.09 3.988-13.637zm-6.18 22.956c-4.351 3.082-7.86 4.39-11.86 5.793-4.019 1.41-8.323 2.106-12.913 2.106-6.79 0-12.246-1.645-16.414-4.934-4.157-3.285-4.895-4.79-4.895-9.922 0-3.394.942-6.383 2.817-8.992 1.863-2.598 4.347-4.688 7.425-6.262 3.094-1.586 6.754-3.89 11.153-5.043 9.816-2.578 18.054-2.726 32.66-2.765.972-2.832 1.168-6.52 1.168-8.395 0-2.398-.688-4.875-2.817-6.258-2.93-1.894-6.664-2.312-12.297-2.312-5.273 0-10.128 1.316-13.507 3.254-3.364 1.925-4.297 3.554-5.832 7.105l-12.18.266c2.578-6.008 5.168-9.863 10.773-13.063 5.606-3.199 12.153-4.8 20.692-4.8 9.082 0 16.187-.137 21.52 3.417 4.03 2.688 5.476 6.895 5.476 11.145 0 3.238-.567 6.984-1.703 11.258l-4.043 15.078c-.457 1.707-4.656 19.125-4.867 20.05l-11.403-.034c.805-1.985 1.067-3.739 1.047-6.692zm-220.719-16.95c0 5.74 1.637 10.09 4.887 13.048 3.25 2.96 7.399 4.449 12.426 4.449 2.625 0 5.23-.453 7.789-1.352 2.582-.902 4.976-2.253 7.191-4.097a28.065 28.065 0 005.668-6.29 33.282 33.282 0 003.782-7.6c1.406-3.782 2.097-7.407 2.097-10.895 0-5.504-1.636-9.778-4.91-12.813-3.297-3.035-7.422-4.566-12.398-4.566-3.852 0-7.356.785-10.512 2.332-3.18 1.547-6.04 3.8-8.598 6.8-2.558 2.977-4.426 6.446-5.62 10.403-1.2 3.957-1.802 7.484-1.802 10.582zm-12.168 1.02c0-11.875 4.125-21.71 12.356-29.507 6.797-6.41 15.695-9.621 26.734-9.621 8.621 0 15.582 2.293 20.883 6.875 5.277 4.586 7.93 10.777 7.93 18.554 0 6.996-1.66 13.5-5.004 19.516-3.317 6.015-8.067 10.64-14.195 13.832-6.157 3.215-12.61 4.82-19.41 4.82-5.579 0-10.65-1.015-15.212-3.035-4.586-2.02-8.066-4.898-10.464-8.601-2.418-3.704-3.618-7.977-3.618-12.833zm-68.082 14.649c-9.367 6.918-15.996 9.82-24.757 9.82-5.375 0-9.723-1.293-13.04-3.894-3.312-2.606-4.972-5.801-4.972-9.563 0-2.492 1.074-6.691 2.441-12.812l7.813-34.93h11.941l-8.797 39.074c-.726 3.223-1.277 5.684-1.277 7.45 0 2.035.805 3.632 2.441 4.753 1.614 1.141 4.012 1.711 7.168 1.711 8.637 0 14.176-2.246 19.438-6.761 3.902-3.348 4.91-8.157 7.894-19.739l6.633-25.738h11.805l-15.434 59.195h-10.976zm-222.402 29.984l15.7-20.457-9.829-62.472h12l5.067 33.93c1.003 6.695 1.699 9.327 2.789 15.71l29.972-49.64h11.895l-35.957 55.793-21.688 27.187c-2.972 0-4.23-.031-9.949-.05zm-32.055-21.136l18.309-84.829h11.418l-18.309 84.829zm-61-13.137c1.54 4.058 7.86 7.355 15.59 7.355 6.606 0 11.211-.953 16.617-7.011 5.625-6.313 9.235-15.684 9.235-23.418 0-5.7-.367-11.407-3.117-14.528-2.73-3.097-6.258-4.285-10.352-4.285-2.926 0-9.508 2.258-12.148 3.57-3.375 1.676-6.649 4.223-9.04 7.247-2.863 3.617-7.484 29.23-6.785 31.07zm-20.52 37.312l18.61-85 11.711-.011-1.398 7.015c4.28-3.254 5.246-3.922 8.363-5.508 3.102-1.578 11.043-3.507 14.531-3.507 6.438 0 12.586 2.515 17.235 6.77 3.734 3.417 5.308 8.538 5.222 17.25-.125 13.046-7.527 26.612-17.777 33.624-5.777 3.957-12.809 7.145-19.867 7.145-8.106 0-12.434-.922-19.227-7.164l-5.984 29.386zm-109.913-23.03l14.715-62.032h10.882l-1.761 8.348c4.996-4.926 16.058-9.66 23.695-9.66 8.844 0 14.348 3.85 16.258 11.425 6.554-5.68 14.953-11.8 24.351-11.8 5.868 0 10.192 1.59 13.13 4.038 2.933 2.45 4.097 6.102 4.097 10.524 0 1.914-.266 4.824-1.254 9.238l-8.941 39.918-10.946.004 8.59-40.762c.711-3.375.89-5.668.89-7.101 0-5.676-3.113-7.227-9.16-7.227-6.55 0-7.663.281-11.32 2.453-11.433 6.778-9.53 6.957-13.035 22.555l-6.754 30.094h-11.11l8.77-41.809c1.29-6.148 1.829-13.578-8.261-13.738-4.684-.074-7.621.324-11.02 2.754-12.758 9.113-10.37 9.554-13.48 23.613l-6.442 29.164zm-30.64-.067l13.44-62.184 11.793-.02-13.44 62.184zm16.183-73.97l2.918-12.03h11.418l-2.918 12.03zm829.074 72.08l13.988-60 11.793-.02-13.988 60zm16.73-72.485l2.918-10.606h11.418l-2.918 10.606zm-243.175 72.07l14.562-58.879h10.883l-1.762 8.344c4.996-4.922 16.059-9.66 23.696-9.66 8.843 0 14.347 3.851 16.257 11.425 6.555-5.675 14.953-11.8 24.352-11.8 5.867 0 10.191 1.593 13.129 4.043 2.933 2.449 4.097 6.101 4.097 10.523 0 1.91-.046 4.879-1.253 9.234l-10.293 37.07-10.946.005 9.942-37.914c.875-3.336.89-5.668.89-7.102 0-5.676-3.113-7.223-9.16-7.223-6.55 0-7.664.282-11.32 2.45-11.434 6.777-8.735 7.164-13.035 22.554l-7.543 26.996h-11.106l9.555-38.707c1.504-6.101 1.828-13.578-8.262-13.742-4.683-.074-7.62.328-11.02 2.754-12.757 9.113-10.093 9.621-13.48 23.613l-6.293 26.016zm-85.79-6.316l-1.238 5.96c-2.754.653-5.484 1.305-8.062 1.305-4.57 0-8.793-.387-11.496-2.441-2.02-1.535-1.985-4.29-1.985-6.953 0-1.34-.043-4.493 1.196-9.313l8.64-33.656h-9.101l1.43-7.938h9.097l3.734-14.972 10.926.031-3.066 14.961h11.308l-1.707 7.918h-11.18l-8.25 31.898c-1.109 4.29-1.452 6.907-1.452 7.754 0 3.262.488 5.817 4.855 5.817 2.535 0 4.36.086 6.352-.371zM496.16 362.5c-4.601 0-11.465-.2-15.988.09-9.492.605-16.445 2.543-21.98 8.363-1.587 1.668-2.38 3.488-2.38 5.492 0 2.696 1.25 4.899 3.774 6.618 2.5 1.734 6.078 2.601 10.73 2.601 4.313 0 8.454-.832 12.422-2.512 3.969-1.683 7.114-4.007 9.434-7.011 2.312-2.996 2.691-8.09 3.988-13.641zm-6.176 22.96c-4.351 3.083-7.863 4.392-11.859 5.794-4.02 1.406-8.328 2.105-12.914 2.105-6.79 0-12.246-1.644-16.414-4.933-4.16-3.285-4.895-4.793-4.895-9.922 0-3.395.942-6.383 2.813-8.992 1.863-2.598 4.351-4.688 7.426-6.262 3.097-1.586 6.757-3.89 11.152-5.047 9.816-2.578 18.055-2.723 32.664-2.765.969-2.829 1.164-6.52 1.164-8.391 0-2.399-.683-4.879-2.816-6.258-2.93-1.894-6.664-2.316-12.293-2.316-5.274 0-10.133 1.32-13.512 3.257-3.36 1.926-4.293 3.555-5.832 7.106l-12.18.262c2.578-6.008 5.172-9.86 10.778-13.059 5.601-3.2 12.152-4.8 20.687-4.8 9.082 0 16.188-.137 21.52 3.413 4.035 2.692 5.48 6.895 5.48 11.149 0 3.238-.57 6.984-1.703 11.258l-4.047 15.078c-.457 1.707-4.652 19.125-4.863 20.05l-11.402-.039c.804-1.98 1.066-3.734 1.046-6.687zM1 366.013l11.695.09c-.011 4.683-.535 5.336 1.407 9.742 1.351 3.062 4.84 5.008 9.03 6.547 4.22 1.539 9.204 2.32 15 2.32 8.22 0 14.477-1.535 18.81-4.64 4.316-3.094 8.87-7.829 8.87-11.813 0-2.77-1.128-5.336-3.425-7.594-11.09-10.875-49.903-3.012-49.98-28.726-.044-15.043 17.593-25.333 34.3-25.333 8.387 0 15.941-.164 21.805 1.946C84.52 314.305 83.8 322.574 83.5 330.984l-11.418-.27c0-8.644-3.305-9.632-6.156-12.073-3.469-2.973-13.696-4-18.399-3.73-7.828.448-13.136 2.144-17.28 5.034-3.184 2.22-6.493 7.551-6.493 11.203 0 11.137 17.351 10.282 26.719 12.797 14.324 3.852 29.027 7.7 27.933 22.852-1.05 14.52-24.379 27.64-40.754 27.64-11.668 0-21.16-2.167-28.535-6.503-7.36-4.329-8.07-10.653-8.117-21.922"/>
    </g>
  </symbol>
  <symbol id="gates" viewBox="0 0 540 540">
    <g>
      <path d="M540.504 270.207c0 146.902-117.242 266.422-263.277 270.121-2.317.059-4.645.09-6.973.09C120.992 540.418 0 419.441 0 270.207S120.992 0 270.254 0c149.258 0 270.25 120.973 270.25 270.207zm0 0zm0 0l2.812.324" fill="#78b9eb"/>
      <path d="M540.484 273.586c-1.496-32.176-.234-15.203-1.847-34.895-.13-1.613-.418-3.46-.66-5.609l-114.575-114.55-41.996 41.988 35.852 35.847-28.801 28.797-56.078-56.07-17.965 17.96 18.324 21.926 3.864 3.86-63.536-63.524-17.968 17.965 13.03 24.582-5.144 26.465-49.246-49.234-9.027 9.027-60.008-60-25.363 38.836 2.25 91.234-27.184 158.192L226.051 536.82c18.902 2.426 25.137 2.79 33.21 3.375C370.782 546 508.759 469.496 537 313.835zm-13.257 1.941zm0 0h.18" fill="#5aaae7"/>
      <path d="M253.293 149.316h19.777V376.73h-19.777zm0 0zm0 0h.18m-59.516 19.778h19.781V376.73h-19.781zm0 0zm0 0h.184" fill="#5a5a5a"/>
      <path d="M312.629 169.094h19.777V376.73H312.63zm0 0zm0 0h16014.93M263.184 149.316h9.886V376.73h-9.886zm0 0zm0 0h16014.93" fill="#444"/>
      <path d="M124.074 366.844H402.29v19.773H124.074zm0 0zm0 0h.18m-.18-39.551H402.29v19.773H124.074zm0 0zm0 0h.18m278.035-118.652v19.777H335.57l-1.976-1.188c-24.13-12.261-47.274-18.59-70.41-18.59-23.141 0-46.282 6.329-70.215 18.59l-2.176 1.188H123.68v-19.777h62.367c26.105-13.051 51.621-19.774 77.137-19.774 25.316 0 51.027 6.723 77.136 19.774zm0 0zm0 0h.184m-.184 39.55v19.778h-76.21l-10.684-5.54c-18.391-9.488-35.2-14.238-52.211-14.238-17.012 0-33.825 4.75-52.215 14.239l-10.68 5.539h-76.61V248.19h71.864l6.523-3.363c21.164-10.875 41.141-16.41 61.118-16.41 19.972 0 39.953 5.535 61.312 16.41l6.328 3.363zm0 0zm0 0h.184" fill="#5a5a5a"/>
      <path d="M402.29 208.64v19.778h-66.72l-1.976-1.188c-24.13-12.261-47.274-18.59-70.41-18.59v-19.773c25.316 0 51.027 6.723 77.136 19.774zm0 0zm0 0h16014.933M330.824 248.192h71.465v19.778h-76.21l-10.684-5.54c-18.391-9.488-35.2-14.238-52.211-14.238v-19.773c19.972 0 39.953 5.535 61.312 16.41zm0 0zm0 0h16014.93M263.184 327.293h139.105v19.773H263.184zm0 0zm0 0h16014.93m-16014.93 39.55h139.105v19.774H263.184zm0 0zm0 0h16014.93" fill="#444"/>
      <path d="M431.957 208.64v197.755h-39.555V149.316h19.778zm0 0zm0 0C.035 0 0 0 0 0" fill="#ececf1"/>
      <path d="M431.957 208.64v197.755h-29.668V149.316h9.89zm0 0zm0 0L0 0" fill="#babac0"/>
      <path d="M133.965 149.316v257.079H94.406V208.64l19.781-59.325zm0 0zm0 0l7.207.254" fill="#e2e2e7"/>
      <path d="M124.074 149.316h9.89v257.079h-9.89zm0 0zm0 0l.11.11h.289" fill="#d3d3d8"/>
      <path d="M431.957 139.43c0 16.41-13.254 29.664-29.668 29.664s-29.664-13.254-29.664-29.664c0-16.414 13.246-29.664 29.664-29.664 16.414 0 29.668 13.25 29.668 29.664zm0 0zm0 0h14.414" fill="#ffd400"/>
      <path d="M431.957 139.43c0 16.41-13.254 29.664-29.668 29.664v-59.328c16.414 0 29.668 13.25 29.668 29.664zm0 0zm0 0" fill="#fdbf00"/>
      <path d="M153.742 139.43c0 16.41-13.25 29.664-29.668 29.664-16.414 0-29.668-13.254-29.668-29.664 0-16.414 13.254-29.664 29.668-29.664 16.418 0 29.668 13.25 29.668 29.664zm0 0zm0 0h14.414" fill="#ffd400"/>
      <path d="M153.742 139.43c0 16.41-13.25 29.664-29.668 29.664v-59.328c16.418 0 29.668 13.25 29.668 29.664zm0 0zm0 0" fill="#fdbf00"/>
    </g>
  </symbol>
  <symbol id="sliding-gates" viewBox="0 0 540 540">
    <g>
      <path d="M539.684 270.2c0 149.226-120.809 270.198-269.84 270.198C120.813 540.398 0 419.426 0 270.2 0 120.97 120.813 0 269.844 0s269.84 120.969 269.84 270.2zm0 0zm0 0" fill="#ff7f4f"/>
      <path d="M538.328 242.941c-.781-7.117-.402-3.777-1.148-9.734l-101.364-84.082-40.945 11.36 25.16 36.34-29.156 29.19-56.766-56.843-15.62 21.281 15.984 19.156 3.91 3.914-55.567-44.312h-15.652l1.91 23.047 8.102 25.734-52.238-48.781-15.649 39.734v-2.539l-39.504-37.195h-20.02l-16.5-20.086-14.8 7.746 2.273 92.488-27.511 160.364 125.859 120.695c7.894 2.656 8.8 10.36 53.762 9.96 142.242 4.9 279.804-136.1 266.8-274.616l-.984-17.02zm0 0" fill="#dd562c"/>
      <path d="M267.164 169.21h20.02V379.63l-20.02-.004zm0 0zm0 0M209.29 169.21h20.019V379.63l-20.02-.004zm0 0zm0 0" fill="#5a5a5a"/>
      <path d="M277.176 169.21h10.008V379.63l-10.008-.004zm0 0zm0 0" fill="#444"/>
      <path d="M127.625 317.82h210.883v31.774H127.625zm0 0zm0 0" fill="#5a5a5a"/>
      <path d="M439.277 209.266v200.468h-53.21V149.125h26.605zm0 0zm0 0" fill="#ececf1"/>
      <path d="M439.277 209.266v200.468h-30.03V149.125h30.937zm0 0zm0 0" fill="#babac0"/>
      <path d="M127.625 198.941h210.883v31.774l-210.883.004zm0 0zm0 0" fill="#5a5a5a"/>
      <path d="M137.637 149.125v260.61H88.988v-200.47l1.965-60.382zm0 0zm0 0" fill="#e2e2e7"/>
      <path d="M127.625 149.125h10.012v260.61h-10.012zm0 0zm0 0" fill="#d3d3d8"/>
      <path d="M318.488 169.21h20.02V379.63l-20.02-.004zm0 0zm0 0" fill="#444"/>
      <path d="M154.137 169.21h20.02V379.63l-20.02-.004zm0 0zm0 0" fill="#5a5a5a"/>
      <path d="M277.176 198.941h61.332v31.774l-61.332.004zm0 0zm0 0M277.176 317.82h61.332v31.774h-61.332zm0 0zm0 0" fill="#444"/>
      <path d="M128.387 122.875c0 9.258-7.465 16.73-16.711 16.73-9.242 0-16.711-7.472-16.711-16.73s7.465-16.73 16.71-16.73c9.247 0 16.712 7.472 16.712 16.73zm0 0zm0 0" fill="#ffd400"/>
      <path d="M128.387 122.875c0 9.258-7.465 16.73-16.711 16.73v-33.46c9.246 0 16.71 7.472 16.71 16.73zm0 0zm0 0" fill="#fdbf00"/>
      <path d="M431.172 122.875c0 9.258-7.461 16.73-16.707 16.73s-16.711-7.472-16.711-16.73 7.465-16.73 16.71-16.73c9.247 0 16.708 7.472 16.708 16.73zm0 0zm0 0" fill="#ffd400"/>
      <path d="M431.172 122.875c0 9.258-7.461 16.73-16.707 16.73v-33.46c9.246 0 16.707 7.472 16.707 16.73zm0 0zm0 0" fill="#fdbf00"/>
    </g>
  </symbol>
  <symbol id="barrier" viewBox="0 0 512 512">
    <g>
      <g id="XMLID_1151_">
      <g id="XMLID_1531_">
      <g id="XMLID_2764_">
      <g id="XMLID_2765_">
      <g id="XMLID_2766_">
      <g id="XMLID_2767_">
      <g id="XMLID_2768_">
      <g id="XMLID_2769_">
      <g id="XMLID_2770_">
      <g id="XMLID_2771_">
      <g id="XMLID_2772_">
      <g id="XMLID_2773_">
      <g id="XMLID_2774_">
      <g id="XMLID_2775_">
      <g id="XMLID_2776_">
      <g id="XMLID_2777_">
      <g id="XMLID_2778_">
      <circle id="XMLID_2779_" cx="256" cy="256" fill="#4bb9ec" r="256"/></g></g></g></g></g></g></g></g></g></g></g></g></g></g></g></g>
      <path id="XMLID_1489_" d="m512 256c0-9.577-.543-19.026-1.568-28.33l-27.112-27.112-283.195 4.442-31.799-31.859-93.993 164.467h-21.464l-13.75 17.25 147.666 147.665c22.016 6.169 45.228 9.477 69.215 9.477 141.385 0 256-114.615 256-256z" fill="#0095ff"/>
      <g id="XMLID_447_">
      <path id="XMLID_492_" d="m483.32 200.558v45.5h-50.02l-19.55-1.933-21.16 1.933h-58.29l-19.133-1.891-21.577 1.891h-58.28l-17.727-1.641-22.993 1.641h-34.69v-45.5h63.2l19.067 2.275 21.653-2.275h58.28l18.567 3.275 22.143-3.275h58.29l18.233 2.942 22.477-2.942z" fill="#fff"/>
      <path id="XMLID_781_" d="m483.32 200.56v45.5h-50.02l-19.55-1.94-21.16 1.94h-58.29l-6.1-.6v-43.83l12.47 2.2 22.14-3.27h58.29l18.23 2.94 22.48-2.94z" fill="#fff5ca"/>
      <path id="XMLID_488_" d="m60.584 173.141h107.743v155.364h-107.743z" fill="#ff637b"/>
      <path id="XMLID_542_" d="m114.46 173.14h53.87v155.36h-53.87z" fill="#e03b5a"/>
      <g id="XMLID_485_">
      <path id="XMLID_487_" d="m39.119 320.358h150.672v34.5h-150.672z" fill="#576770"/></g>
      <g id="XMLID_521_">
      <g id="XMLID_673_">
      <path id="XMLID_694_" d="m114.46 320.36h75.33v34.5h-75.33z" fill="#324a5e"/></g></g>
      <g id="XMLID_478_">
      <g id="XMLID_950_">
      <g id="XMLID_957_">
      <path id="XMLID_958_" d="m263.82 200.558-28.51 45.5h-40.72l28.51-45.5z" fill="#ffc56e"/></g><g id="XMLID_955_">
      <path id="XMLID_956_" d="m362.81 200.558-28.51 45.5h-40.71l28.51-45.5z" fill="#ffc56e"/></g><g id="XMLID_953_">
      <path id="XMLID_954_" d="m362.81 200.56-28.51 45.5h-6.1v-45.5z" fill="#f2a846"/></g><g id="XMLID_951_">
      <path id="XMLID_952_" d="m461.81 200.558-28.51 45.5h-40.71l28.51-45.5z" fill="#f2a846"/></g></g></g></g></g>
    </g>
  </symbol>
  <symbol id="garage" viewBox="0 0 512 512">
    <g>
      <circle style="fill:#FF7F4F;" cx="256" cy="256" r="256"/>
      <path style="fill:#DD562C;" d="M511.886,263.387l-90.393-90.393L113.776,398.222l111.992,111.992
      c9.916,1.167,20.001,1.786,30.23,1.786C394.914,512,507.976,401.355,511.886,263.387z"/>
      <polygon style="fill:#DD562C;" points="90.503,206.093 183.984,299.572 142.222,170.667 "/>
      <polygon style="fill:#366695;" points="398.22,398.222 113.776,398.222 113.776,170.667 255.998,113.778 398.22,170.667 "/>
      <polygon style="fill:#273B7A;" points="398.22,170.667 255.998,113.778 254.564,114.352 254.564,398.222 398.22,398.222 "/>
      <polygon style="fill:#273B7A;" points="421.493,172.994 255.998,106.796 90.503,172.994 90.503,206.093 255.998,139.895 421.493,206.093 "/>
      <rect x="142.222" y="227.556" style="fill:#273B7A;" width="227.556" height="170.667"/>
      <polygon style="fill:#121149;" points="255.998,106.796 254.564,107.37 254.564,140.469 255.998,139.895 421.493,206.093 421.493,172.994 	"/>
      <rect x="254.569" y="227.556" style="fill:#121149;" width="115.214" height="170.667"/>
      <rect x="142.222" y="249.104" style="fill:#38C6D9;" width="227.556" height="13.791"/>
      <rect x="142.222" y="277.549" style="fill:#38C6D9;" width="227.556" height="13.791"/>
      <rect x="142.222" y="305.993" style="fill:#38C6D9;" width="227.556" height="13.791"/>
      <rect x="142.222" y="334.438" style="fill:#38C6D9;" width="227.556" height="13.791"/>
      <rect x="142.222" y="362.882" style="fill:#38C6D9;" width="227.556" height="13.791"/>
      <rect x="254.569" y="249.104" style="fill:#22A8B2;" width="115.214" height="13.791"/>
      <rect x="254.569" y="277.549" style="fill:#22A8B2;" width="115.214" height="13.791"/>
      <rect x="254.569" y="305.993" style="fill:#22A8B2;" width="115.214" height="13.791"/>
      <rect x="254.569" y="334.438" style="fill:#22A8B2;" width="115.214" height="13.791"/>
      <rect x="254.569" y="362.882" style="fill:#22A8B2;" width="115.214" height="13.791"/>
    </g>
  </symbol>
  <symbol id="prev" viewBox="0 0 512 512">
    <g>
      <g fill="currentColor">
        <path d="M184.32 447.248h143.296v12H184.32zM87.472 500h337.04v12H87.472z"/>
      </g>
      <circle cx="256" cy="184.8" r="184.8" fill="#32bea6"/>
      <path fill="#fff" d="M285.952 121.256l-44.184 43.328h106.624v40.432H241.768l44.184 43.328-28.144 28.856-94.2-92.392 94.2-92.408z"/>
    </g>
  </symbol>
  <symbol id="next" viewBox="0 0 512 512">
    <g>
      <g fill="currentColor">
        <path d="M183.328 445.264h143.296v12H183.328zM86.48 498.016h337.04v12H86.48z"/>
      </g>
      <circle cx="255.008" cy="184.8" r="184.8" fill="#25b6d2"/>
      <path fill="#fff" d="M225.056 121.248l44.184 43.336H162.616v40.424H269.24l-44.184 43.336L253.2 277.2l94.2-92.4-94.2-92.4z"/>
    </g>
  </symbol>
  <symbol id="to-top" viewBox="0 0 286 286">
    <g>
      <path d="M286.054 143.027C286.054 64.031 222.014 0 143.027 0S0 64.031 0 143.027s64.04 143.027 143.027 143.027 143.027-64.04 143.027-143.027zm-26.818 0c0 64.192-52.026 116.2-116.209 116.2s-116.209-52.008-116.209-116.2c0-64.183 52.026-116.209 116.209-116.209s116.209 52.035 116.209 116.209zm-55.709-5.39L151.85 86.54c-4.854-7.884-12.792-7.884-17.637 0l-51.686 51.096c-4.845 7.875-.876 14.338 8.823 14.338h24.86v44.696a8.937 8.937 0 008.939 8.939h35.757a8.931 8.931 0 008.939-8.939v-44.696h24.86c9.707-.008 13.676-6.462 8.822-14.337z" fill="#3db39e"/>
    </g>
  </symbol>
</svg>