<svg xmlns="http://www.w3.org/2000/svg">
  <symbol id="logo" viewBox="0 0 513.614 513.614" >
    <g>
      <path d="M508.274 138.691a46.968 46.968 0 004.935-20.995c0-26.065-21.206-47.271-47.271-47.271s-47.271 21.205-47.271 47.271a46.968 46.968 0 004.388 19.855c-3.973 2.698-6.584 7.252-6.584 12.416v39.576l-143.76-37.683v-13.854c0-8.284-6.716-15-15-15s-15 6.716-15 15v13.87L99.144 189.712v-39.75c0-5.164-2.61-9.716-6.582-12.415a46.982 46.982 0 004.386-19.851c0-26.065-21.206-47.271-47.271-47.271S2.406 91.631 2.406 117.697a46.963 46.963 0 004.386 19.851C2.82 140.246.21 144.799.21 149.963v348.651c0 8.284 6.716 15 15 15h68.935c8.284 0 15-6.716 15-15V479.59l42.036.005c.133.003.262.02.395.02s.261-.016.393-.02l57.409.006c.089.002.176.013.265.013s.175-.012.264-.013l57.669.007c.046 0 .09.007.136.007s.089-.006.135-.007l57.928.007h.012l100.685.011v17.315c0 8.284 6.716 15 15 15h66.935c8.284 0 15-6.716 15-15V149.968c-.002-4.5-1.994-8.527-5.133-11.277zm-42.337-38.265c9.523 0 17.271 7.747 17.271 17.271s-7.748 17.271-17.271 17.271-17.271-7.748-17.271-17.271 7.748-17.271 17.271-17.271zM416.47 384.454h-27.623V213.317l27.623 7.241zm-231.828 30V449.6l-28.068-.003v-35.143zm-28.068-30V205.601l28.068-7.397v186.25zm58.068 30h28.068v35.153l-28.068-.003zm58.069 0h28.068v35.159l-28.068-.003zm58.068 0h28.068v35.166l-28.068-.003zm0-30V198.095l28.068 7.358v179h-28.068zm-30-194.222v194.222h-28.068v-201.58zm-58.068 194.222h-28.068V190.298l28.068-7.397zM126.574 213.507v170.946h-27.43V220.737zM49.677 100.426c9.523 0 17.271 7.747 17.271 17.271 0 9.484-7.686 17.202-17.155 17.266h-.231c-9.47-.063-17.155-7.781-17.155-17.266-.001-9.524 7.746-17.271 17.27-17.271zM30.209 483.614V164.962h19.236c.077 0 .153.006.231.006s.154-.005.231-.006h19.236c.002 63.205-.006 258.92 0 318.651H30.209zm68.935-69.16h27.431v35.14l-27.431-.003zm289.703 35.169v-35.169h27.623v35.172zm94.558 32.318H446.47V164.968h36.935z"/>
      <path d="M206.458 75.728c-5.858 5.857-5.858 15.355 0 21.213 5.857 5.857 15.355 5.857 21.213 0 16.564-16.563 43.515-16.563 60.079 0 2.929 2.929 6.768 4.394 10.606 4.394s7.678-1.465 10.606-4.394c5.858-5.857 5.858-15.355 0-21.213-28.26-28.262-74.243-28.262-102.504 0z"/>
      <path d="M189.094 58.363c37.836-37.836 99.398-37.836 137.234 0 2.929 2.929 6.768 4.394 10.606 4.394s7.678-1.465 10.606-4.394c5.858-5.857 5.858-15.355 0-21.213-49.532-49.533-130.128-49.533-179.66 0-5.858 5.857-5.858 15.355 0 21.213 5.858 5.857 15.356 5.857 21.214 0z"/>
    </g>
  </symbol>
  <symbol id="email" viewbox="0 0 18 11">
    <g>
      <path clip-rule="evenodd" d="m.680121 0 8.319879 6.07783 8.3199-6.07783zm-.680121
      9.50268v-8.15617l5.26645 3.84725zm17.4822 1.49732h-16.964447l5.989057-4.90014 2.06695
      1.50995.42624.31138.42624-.31138 2.06696-1.50995zm.5178-9.65349v8.15617l-5.2665-4.30892z" />
    </g>
  </symbol>
  <symbol id="phone" viewbox="0 0 15 16">
    <g>
      <path clip-rule="evenodd" d="m3.76491.0343806c-1.11166.5125784-2.16449 1.0532894-2.902912
      1.9126894-.743629.86546-1.094365 2.00737-.695143 3.6009 1.169215 4.66703 5.165665 8.63833
      9.597175 10.27163 1.19487.3867 2.54117.1511 3.42717-.7015.8085-.778 1.5125-2.0526
      1.7718-3.1625.171-.7317-.2727-1.2672-.8797-1.5693l-3.6333-1.80808c-.92031-.24474-1.39971.89725-1.71963
      1.56888-1.43286-.88638-2.52183-1.97467-3.26316-3.49557.64634-.34518 1.71558-.88991
      1.5005-1.80486l-1.71234-3.935653c-.19693-.65483-.84606-1.030622-1.49046-.8766364z" />
    </g>
  </symbol>
  <symbol id="faac-logo" viewBox="0 0 1051.25 417.151">
    <g>
      <path d="M11.73 43.086v184.031h46.985V170.04h126l40.969-40.969H58.714V83.04h213.099l40.011-40.017zm0 0M463.715 1h-72.86L129.762 262.094h64.035l92-92h127.035v92.969l51.02.062v-.102l92.93-92.93h127.034v92.97l51.024.062L734.7 1l-72.626.105L463.82 199.652zm221.101 127.063H599.63L684.8 42.89zm-270.984 0h-85.187l85.171-85.172zm0 0M1039.719 75.914l-.125-41.875-204.782.031c-38.34.004-88.87 42.078-88.87 99.91 0 57.836 51.14 90.606 88.87 93.122h204.145v-41.993H840.934c-26.399 0-43.5-31.105-43.5-55.425.722-41.793 36.968-53.649 46.562-53.653zm0 0" fill-rule="evenodd"/>
      <path d="M1037.164 391.86l2.27-9.747h10.816l-2.324 9.746zm-23.723-18.684l12.485-.035c-3.13 7.52-6.188 10.32-11.969 13.968-5.766 3.641-12.25 4.942-19.61 4.942-7.972 0-14.492-1.586-19.452-5.832-4.938-4.227-7.407-10.14-7.407-17.739 0-6.57 1.574-13.027 4.75-19.386 3.176-6.336 7.715-11.184 13.617-14.48 5.926-3.313 14.473-5.337 22.047-5.337 7.852 0 13.493 1.516 18.094 5.184 4.59 3.66 5.23 7.644 5.23 13.676l-11.074-.13c-.047-3.82-.933-5.519-3.586-7.679-2.636-2.144-6.136-3.234-10.464-3.234-5.008 0-10.559 2.347-14.25 4.965-3.668 2.597-6.563 6.55-8.657 11.863-2.093 5.312-3.148 10.43-3.148 15.332 0 5.14 1.39 8.992 4.137 11.555 2.757 2.574 6.285 3.746 10.32 3.445 12.637-.938 16.46-5.016 18.937-11.078zm-88.562 10.918l-1.242 5.96c-2.75.653-5.48 1.301-8.059 1.301-4.574 0-8.797-.382-11.5-2.437-2.02-1.535-1.984-4.29-1.984-6.953 0-1.344-.04-4.492 1.199-9.317l8.64-33.656h-9.101l1.426-7.937h9.101l3.73-14.97 10.93.032-3.07 14.961h11.309l-1.707 7.914h-11.18l-8.25 31.903c-1.11 4.289-1.45 6.906-1.45 7.753 0 3.262.49 5.817 4.852 5.817 2.536 0 4.36.082 6.356-.371zm-51.496-22.64c-4.602 0-11.465-.2-15.992.089-9.489.605-16.446 2.539-21.98 8.36-1.587 1.667-2.376 3.488-2.376 5.495 0 2.692 1.25 4.895 3.774 6.614 2.5 1.734 6.074 2.601 10.73 2.601 4.313 0 8.453-.832 12.422-2.511 3.969-1.68 7.113-4.008 9.434-7.012 2.308-2.992 2.69-8.09 3.988-13.637zm-6.18 22.956c-4.351 3.082-7.86 4.39-11.86 5.793-4.019 1.41-8.323 2.106-12.913 2.106-6.79 0-12.246-1.645-16.414-4.934-4.157-3.285-4.895-4.79-4.895-9.922 0-3.394.942-6.383 2.817-8.992 1.863-2.598 4.347-4.688 7.425-6.262 3.094-1.586 6.754-3.89 11.153-5.043 9.816-2.578 18.054-2.726 32.66-2.765.972-2.832 1.168-6.52 1.168-8.395 0-2.398-.688-4.875-2.817-6.258-2.93-1.894-6.664-2.312-12.297-2.312-5.273 0-10.128 1.316-13.507 3.254-3.364 1.925-4.297 3.554-5.832 7.105l-12.18.266c2.578-6.008 5.168-9.863 10.773-13.063 5.606-3.199 12.153-4.8 20.692-4.8 9.082 0 16.187-.137 21.52 3.417 4.03 2.688 5.476 6.895 5.476 11.145 0 3.238-.567 6.984-1.703 11.258l-4.043 15.078c-.457 1.707-4.656 19.125-4.867 20.05l-11.403-.034c.805-1.985 1.067-3.739 1.047-6.692zm-220.719-16.95c0 5.74 1.637 10.09 4.887 13.048 3.25 2.96 7.399 4.449 12.426 4.449 2.625 0 5.23-.453 7.789-1.352 2.582-.902 4.976-2.253 7.191-4.097a28.065 28.065 0 005.668-6.29 33.282 33.282 0 003.782-7.6c1.406-3.782 2.097-7.407 2.097-10.895 0-5.504-1.636-9.778-4.91-12.813-3.297-3.035-7.422-4.566-12.398-4.566-3.852 0-7.356.785-10.512 2.332-3.18 1.547-6.04 3.8-8.598 6.8-2.558 2.977-4.426 6.446-5.62 10.403-1.2 3.957-1.802 7.484-1.802 10.582zm-12.168 1.02c0-11.875 4.125-21.71 12.356-29.507 6.797-6.41 15.695-9.621 26.734-9.621 8.621 0 15.582 2.293 20.883 6.875 5.277 4.586 7.93 10.777 7.93 18.554 0 6.996-1.66 13.5-5.004 19.516-3.317 6.015-8.067 10.64-14.195 13.832-6.157 3.215-12.61 4.82-19.41 4.82-5.579 0-10.65-1.015-15.212-3.035-4.586-2.02-8.066-4.898-10.464-8.601-2.418-3.704-3.618-7.977-3.618-12.833zm-68.082 14.649c-9.367 6.918-15.996 9.82-24.757 9.82-5.375 0-9.723-1.293-13.04-3.894-3.312-2.606-4.972-5.801-4.972-9.563 0-2.492 1.074-6.691 2.441-12.812l7.813-34.93h11.941l-8.797 39.074c-.726 3.223-1.277 5.684-1.277 7.45 0 2.035.805 3.632 2.441 4.753 1.614 1.141 4.012 1.711 7.168 1.711 8.637 0 14.176-2.246 19.438-6.761 3.902-3.348 4.91-8.157 7.894-19.739l6.633-25.738h11.805l-15.434 59.195h-10.976zm-222.402 29.984l15.7-20.457-9.829-62.472h12l5.067 33.93c1.003 6.695 1.699 9.327 2.789 15.71l29.972-49.64h11.895l-35.957 55.793-21.688 27.187c-2.972 0-4.23-.031-9.949-.05zm-32.055-21.136l18.309-84.829h11.418l-18.309 84.829zm-61-13.137c1.54 4.058 7.86 7.355 15.59 7.355 6.606 0 11.211-.953 16.617-7.011 5.625-6.313 9.235-15.684 9.235-23.418 0-5.7-.367-11.407-3.117-14.528-2.73-3.097-6.258-4.285-10.352-4.285-2.926 0-9.508 2.258-12.148 3.57-3.375 1.676-6.649 4.223-9.04 7.247-2.863 3.617-7.484 29.23-6.785 31.07zm-20.52 37.312l18.61-85 11.711-.011-1.398 7.015c4.28-3.254 5.246-3.922 8.363-5.508 3.102-1.578 11.043-3.507 14.531-3.507 6.438 0 12.586 2.515 17.235 6.77 3.734 3.417 5.308 8.538 5.222 17.25-.125 13.046-7.527 26.612-17.777 33.624-5.777 3.957-12.809 7.145-19.867 7.145-8.106 0-12.434-.922-19.227-7.164l-5.984 29.386zm-109.913-23.03l14.715-62.032h10.882l-1.761 8.348c4.996-4.926 16.058-9.66 23.695-9.66 8.844 0 14.348 3.85 16.258 11.425 6.554-5.68 14.953-11.8 24.351-11.8 5.868 0 10.192 1.59 13.13 4.038 2.933 2.45 4.097 6.102 4.097 10.524 0 1.914-.266 4.824-1.254 9.238l-8.941 39.918-10.946.004 8.59-40.762c.711-3.375.89-5.668.89-7.101 0-5.676-3.113-7.227-9.16-7.227-6.55 0-7.663.281-11.32 2.453-11.433 6.778-9.53 6.957-13.035 22.555l-6.754 30.094h-11.11l8.77-41.809c1.29-6.148 1.829-13.578-8.261-13.738-4.684-.074-7.621.324-11.02 2.754-12.758 9.113-10.37 9.554-13.48 23.613l-6.442 29.164zm-30.64-.067l13.44-62.184 11.793-.02-13.44 62.184zm16.183-73.97l2.918-12.03h11.418l-2.918 12.03zm829.074 72.08l13.988-60 11.793-.02-13.988 60zm16.73-72.485l2.918-10.606h11.418l-2.918 10.606zm-243.175 72.07l14.562-58.879h10.883l-1.762 8.344c4.996-4.922 16.059-9.66 23.696-9.66 8.843 0 14.347 3.851 16.257 11.425 6.555-5.675 14.953-11.8 24.352-11.8 5.867 0 10.191 1.593 13.129 4.043 2.933 2.449 4.097 6.101 4.097 10.523 0 1.91-.046 4.879-1.253 9.234l-10.293 37.07-10.946.005 9.942-37.914c.875-3.336.89-5.668.89-7.102 0-5.676-3.113-7.223-9.16-7.223-6.55 0-7.664.282-11.32 2.45-11.434 6.777-8.735 7.164-13.035 22.554l-7.543 26.996h-11.106l9.555-38.707c1.504-6.101 1.828-13.578-8.262-13.742-4.683-.074-7.62.328-11.02 2.754-12.757 9.113-10.093 9.621-13.48 23.613l-6.293 26.016zm-85.79-6.316l-1.238 5.96c-2.754.653-5.484 1.305-8.062 1.305-4.57 0-8.793-.387-11.496-2.441-2.02-1.535-1.985-4.29-1.985-6.953 0-1.34-.043-4.493 1.196-9.313l8.64-33.656h-9.101l1.43-7.938h9.097l3.734-14.972 10.926.031-3.066 14.961h11.308l-1.707 7.918h-11.18l-8.25 31.898c-1.109 4.29-1.452 6.907-1.452 7.754 0 3.262.488 5.817 4.855 5.817 2.535 0 4.36.086 6.352-.371zM496.16 362.5c-4.601 0-11.465-.2-15.988.09-9.492.605-16.445 2.543-21.98 8.363-1.587 1.668-2.38 3.488-2.38 5.492 0 2.696 1.25 4.899 3.774 6.618 2.5 1.734 6.078 2.601 10.73 2.601 4.313 0 8.454-.832 12.422-2.512 3.969-1.683 7.114-4.007 9.434-7.011 2.312-2.996 2.691-8.09 3.988-13.641zm-6.176 22.96c-4.351 3.083-7.863 4.392-11.859 5.794-4.02 1.406-8.328 2.105-12.914 2.105-6.79 0-12.246-1.644-16.414-4.933-4.16-3.285-4.895-4.793-4.895-9.922 0-3.395.942-6.383 2.813-8.992 1.863-2.598 4.351-4.688 7.426-6.262 3.097-1.586 6.757-3.89 11.152-5.047 9.816-2.578 18.055-2.723 32.664-2.765.969-2.829 1.164-6.52 1.164-8.391 0-2.399-.683-4.879-2.816-6.258-2.93-1.894-6.664-2.316-12.293-2.316-5.274 0-10.133 1.32-13.512 3.257-3.36 1.926-4.293 3.555-5.832 7.106l-12.18.262c2.578-6.008 5.172-9.86 10.778-13.059 5.601-3.2 12.152-4.8 20.687-4.8 9.082 0 16.188-.137 21.52 3.413 4.035 2.692 5.48 6.895 5.48 11.149 0 3.238-.57 6.984-1.703 11.258l-4.047 15.078c-.457 1.707-4.652 19.125-4.863 20.05l-11.402-.039c.804-1.98 1.066-3.734 1.046-6.687zM1 366.013l11.695.09c-.011 4.683-.535 5.336 1.407 9.742 1.351 3.062 4.84 5.008 9.03 6.547 4.22 1.539 9.204 2.32 15 2.32 8.22 0 14.477-1.535 18.81-4.64 4.316-3.094 8.87-7.829 8.87-11.813 0-2.77-1.128-5.336-3.425-7.594-11.09-10.875-49.903-3.012-49.98-28.726-.044-15.043 17.593-25.333 34.3-25.333 8.387 0 15.941-.164 21.805 1.946C84.52 314.305 83.8 322.574 83.5 330.984l-11.418-.27c0-8.644-3.305-9.632-6.156-12.073-3.469-2.973-13.696-4-18.399-3.73-7.828.448-13.136 2.144-17.28 5.034-3.184 2.22-6.493 7.551-6.493 11.203 0 11.137 17.351 10.282 26.719 12.797 14.324 3.852 29.027 7.7 27.933 22.852-1.05 14.52-24.379 27.64-40.754 27.64-11.668 0-21.16-2.167-28.535-6.503-7.36-4.329-8.07-10.653-8.117-21.922"/>
    </g>
  </symbol>
  <symbol id="came-logo" viewBox="0 0 138 36">
    <g fill="none" fill-rule="evenodd">
      <path d="M96.525 6.781V.97H79.833v27.607h16.692v-5.811H85.64V17.68h7.984v-5.813H85.64V6.781h10.886zm-83.462-.726a6.72 6.72 0 00-5.83 3.371 10.627 10.627 0 00-1.428 5.346c0 1.96.521 3.779 1.428 5.347a6.721 6.721 0 005.83 3.372c2.297 0 4.414-.762 6.115-2.048l3.332 4.763a15.888 15.888 0 01-9.447 3.096c-4.639 0-8.69-2.523-10.857-6.272A16.45 16.45 0 010 14.772c0-3.007.803-5.827 2.206-8.256C4.374 2.766 8.424.243 13.063.243c3.183 0 6.149.932 8.64 2.539l-2.99 4.988a10.106 10.106 0 00-5.65-1.715zm51.019 22.52h-4.355l-5.443-18.239v18.24h-5.806V.969h9.072l4.354 14.592L66.26.969h9.072v27.607h-5.806v-18.24l-5.443 18.24zM34.45 6.044l-2.725 10.909h5.449L34.45 6.043zm-5.628 22.533h-5.985L29.733.969h9.435l6.894 27.607h-5.985l-1.451-5.811h-8.352l-1.45 5.81z" fill="#1A1918" mask="url(#b)"/>
      <path d="M117.572 2.906c0-1.604 1.3-2.906 2.903-2.906a2.905 2.905 0 012.903 2.906 2.904 2.904 0 11-5.806 0zm7.258 31.966h5.806V21.795h-5.806v13.077zm-7.258-7.265h5.806V14.53h-5.806v13.076zm7.258-14.53h13.063V7.265H124.83v5.812zm-14.515 0h13.063V7.265h-13.063v5.812z" fill="#00B0ED"/>
    </g>
  </symbol>
  <symbol id="prev" viewBox="0 0 512 512">
    <g>
      <g fill="currentColor">
        <path d="M184.32 447.248h143.296v12H184.32zM87.472 500h337.04v12H87.472z"/>
      </g>
      <circle cx="256" cy="184.8" r="184.8" fill="#32bea6"/>
      <path fill="#fff" d="M285.952 121.256l-44.184 43.328h106.624v40.432H241.768l44.184 43.328-28.144 28.856-94.2-92.392 94.2-92.408z"/>
    </g>
  </symbol>
  <symbol id="next" viewBox="0 0 512 512">
    <g>
      <g fill="currentColor">
        <path d="M183.328 445.264h143.296v12H183.328zM86.48 498.016h337.04v12H86.48z"/>
      </g>
      <circle cx="255.008" cy="184.8" r="184.8" fill="#25b6d2"/>
      <path fill="#fff" d="M225.056 121.248l44.184 43.336H162.616v40.424H269.24l-44.184 43.336L253.2 277.2l94.2-92.4-94.2-92.4z"/>
    </g>
  </symbol>
  <symbol id="to-top" viewBox="0 0 286 286">
    <g>
      <path d="M286.054 143.027C286.054 64.031 222.014 0 143.027 0S0 64.031 0 143.027s64.04 143.027 143.027 143.027 143.027-64.04 143.027-143.027zm-26.818 0c0 64.192-52.026 116.2-116.209 116.2s-116.209-52.008-116.209-116.2c0-64.183 52.026-116.209 116.209-116.209s116.209 52.035 116.209 116.209zm-55.709-5.39L151.85 86.54c-4.854-7.884-12.792-7.884-17.637 0l-51.686 51.096c-4.845 7.875-.876 14.338 8.823 14.338h24.86v44.696a8.937 8.937 0 008.939 8.939h35.757a8.931 8.931 0 008.939-8.939v-44.696h24.86c9.707-.008 13.676-6.462 8.822-14.337z" fill="#3db39e"/>
    </g>
  </symbol>
</svg>