<svg id="Layer_1" enable-background="new 0 0 512 512" height="512" viewBox="0 0 512 512" width="512" xmlns="http://www.w3.org/2000/svg" fill="#f3f3f3" fill-opacity=".05">
<path id="XMLID_1188_" d="m501 416.4h-4v-306.1c0-3.3-2.7-6-6-6v-17.6c0-3.3-2.7-6-6-6h-.8v-1.3c0-10.8-8.8-19.7-19.7-19.7s-19.7 8.8-19.7 19.7v1.3h-.8c-3.3 0-6 2.7-6 6v17.6c-3.3 0-6 2.7-6 6v55.6h-12.8c-23.9 0-47.1-8.6-65.3-24.2-20.4-17.4-46.3-27.1-73.1-27.1h-49.6c-26.8 0-52.8 9.6-73.1 27.1-18.2 15.6-41.4 24.2-65.3 24.2h-12.9v-55.6c0-3.3-2.7-6-6-6v-17.6c0-3.3-2.7-6-6-6h-.8v-1.3c0-10.8-8.8-19.7-19.7-19.7s-19.7 8.8-19.7 19.7v1.3h-.7c-3.3 0-6 2.7-6 6v17.6c-3.3 0-6 2.7-6 6v26.5c0 3.3 2.7 6 6 6s6-2.7 6-6v-20.5h41v300.1h-41v-237.6c0-3.3-2.7-6-6-6s-6 2.7-6 6v237.6h-4c-3.3 0-6 2.7-6 6v23.9c0 3.3 2.7 6 6 6h72.9c3.3 0 6-2.7 6-6v-23.9c0-3.3-2.7-6-6-6h-4v-2.8h352.1v2.8h-4c-3.3 0-6 2.7-6 6v23.9c0 3.3 2.7 6 6 6h73c3.3 0 6-2.7 6-6v-23.9c0-3.3-2.7-6-6-6zm-461.2-337c0-4.2 3.4-7.7 7.7-7.7 4.2 0 7.7 3.4 7.7 7.7v1.3h-15.4zm22.1 24.9h-28.9v-11.6h29v11.6zm16 336h-60.9v-11.9h60.9zm277-282.7c10.5 7.3 22.2 12.8 34.5 16.2v29.6h-34.5zm-46.4-27.1c12.4 3.6 24.2 9.5 34.5 17.6v55.2h-34.5zm-46.5-3.9h18.8c5.3 0 10.5.4 15.6 1.3v75.5h-34.4zm0 114.7h34.5v88.6h-34.5zm-92.9-93.1c10.3-8.1 22-14 34.5-17.6v72.8h-34.5zm-46.5 25.6c12.3-3.4 23.9-8.9 34.5-16.2v45.8h-34.5zm-42.7 4.1h12.8c6 0 12-.5 17.9-1.5v27h-30.7zm0 63.4h30.7v88.6h-30.7zm30.7 160.3h-30.7v-33.8h30.7zm46.5 0h-34.5v-33.8h34.5zm46.4 0h-34.5v-33.8h34.5zm46.5 0h-34.5v-33.8h34.5zm0-45.9h-170.1v-13.9h170.1zm-127.4-25.8v-88.6h34.5v88.6zm46.5 0v-88.6h34.5v88.6zm80.9 0h-34.5v-88.6h34.5zm0-100.6h-170.1v-13.9h170.1zm0-25.9h-34.5v-75.5c5.1-.8 10.4-1.3 15.6-1.3h18.9zm46.5 198.2h-34.5v-33.8h34.5zm46.4 0h-34.5v-33.8h34.5zm46.5 0h-34.5v-33.8h34.5zm42.7 0h-30.7v-33.8h30.7zm0-45.9h-170.1v-13.9h170.1zm-123.6-25.8v-88.6h34.5v88.6zm46.4 0v-88.6h34.5v88.6zm77.2 0h-30.7v-88.6h30.7zm0-100.6h-170.1v-13.9h170.1zm0-25.9h-30.7v-27c5.9 1 11.9 1.5 17.9 1.5h12.8zm24.8-124c0-4.2 3.4-7.7 7.7-7.7 4.2 0 7.7 3.4 7.7 7.7v1.3h-15.3v-1.3zm-6.8 13.3h29v11.6h-29zm-6 23.6h41v300.1h-41zm50.9 324h-60.9v-11.9h60.9z"/>
<path id="XMLID_1223_" d="m40.2 124c-3.6 0-6.6 3.1-6.6 6.8s2.9 6.8 6.6 6.8 6.6-3.1 6.6-6.8-3-6.8-6.6-6.8z"/>
<path id="XMLID_1224_" d="m34.7 153.9v64.8c0 3.3 2.7 6 6 6s6-2.7 6-6v-64.8c0-3.3-2.7-6-6-6s-6 2.7-6 6z"/>
</svg>