<svg id="Layer_1" enable-background="new 0 0 512 512" height="512" viewBox="0 0 512 512" width="512" xmlns="http://www.w3.org/2000/svg"><g><path d="m506.875 198.807-233.345-180.765c-10.556-7.725-24.9-7.72-35.451.012l-232.77 180.595c-3.367 2.85-5.309 7.037-5.309 11.448l48.763 144.825-33.763 144.826 240.8-40 241.2 40-36.836-123.112 51.836-166.539c0-4.326-1.868-8.442-5.125-11.29z" fill="#fed843"/><path d="m506.875 198.807-233.345-180.764c-5.222-3.822-11.372-5.744-17.53-5.783v447.521l241 39.967-36.836-123.112 51.836-166.539c0-4.326-1.868-8.442-5.125-11.29z" fill="#fabe2c"/><path d="m419.552 65.068h-327.104c-8.284 0-15 6.716-15 15v281.568c0 8.284 6.716 15 15 15h327.104c8.284 0 15-6.716 15-15v-281.568c0-8.285-6.716-15-15-15z" fill="#f4f1f1"/><path d="m419.552 65.068h-163.552v311.568h163.552c8.284 0 15-6.716 15-15v-281.568c0-8.285-6.716-15-15-15z" fill="#eceae7"/><g><path d="m239.05 246.312c-3.835 0-7.67-1.462-10.598-4.385l-40.524-40.46c-5.863-5.853-5.87-15.351-.017-21.213 5.853-5.863 15.351-5.87 21.213-.017l29.926 29.878 63.825-63.725c5.862-5.853 15.36-5.846 21.213.017 5.854 5.862 5.846 15.36-.017 21.213l-74.423 74.307c-2.927 2.923-6.763 4.385-10.598 4.385z" fill="#bee75e"/></g><g><path d="m219.927 365.289-219.927-155.192v274.65c0 5.311 2.808 10.226 7.383 12.922 2.348 1.384 4.981 2.078 7.617 2.078 2.5 0 5.003-.625 7.265-1.876l195.188-108.049c4.304-2.383 7.166-6.724 7.66-11.619s-1.445-9.72-5.186-12.914z" fill="#eceae7"/><path d="m301.794 365.548c-3.561 3.204-5.378 7.916-4.889 12.682.489 4.765 3.225 9.011 7.362 11.425l185.173 108.048c2.335 1.363 4.947 2.044 7.56 2.044 2.578 0 5.157-.664 7.47-1.992 4.658-2.675 7.53-7.637 7.53-13.008v-274.65z" fill="#e7dfdd"/></g><path d="m302.875 146.39-46.875 46.802v42.393l68.072-67.965c5.863-5.853 5.87-15.351.017-21.213-5.854-5.863-15.352-5.87-21.214-.017z" fill="#00cbb1"/><path d="m235.716 300.535-220.716 199.213h482l-221.101-199.23c-11.42-10.29-28.771-10.283-40.183.017z" fill="#0a617d"/><path d="m256 499.748h241l-221.101-199.23c-5.658-5.099-12.773-7.665-19.899-7.709z" fill="#08475e"/></g></svg>